<?xml version="1.0" encoding="utf-8"?>
<!-- Generator: Adobe Illustrator 15.0.0, SVG Export Plug-In . SVG Version: 6.00 Build 0)  -->
<!DOCTYPE svg PUBLIC "-//W3C//DTD SVG 1.1//EN" "http://www.w3.org/Graphics/SVG/1.1/DTD/svg11.dtd">
<svg version="1.1" id="Layer_1" xmlns="http://www.w3.org/2000/svg" xmlns:xlink="http://www.w3.org/1999/xlink" x="0px" y="0px"
	 width="361.149px" height="51.955px" viewBox="0 0 361.149 51.955" enable-background="new 0 0 361.149 51.955"
	 xml:space="preserve">
<rect x="1.573" y="35.044" fill="#1D1D1D" width="10.06" height="10.058"/>
<rect x="1.573" y="24.984" fill="#1D1D1D" width="10.06" height="10.06"/>
<rect x="11.633" y="24.984" fill="#1D1D1D" width="10.06" height="10.06"/>
<rect x="21.693" y="24.99" fill="#1D1D1D" width="10.059" height="10.06"/>
<rect x="21.693" y="14.943" fill="#1D1D1D" width="10.059" height="10.06"/>
<rect x="21.693" y="4.872" fill="#1D1D1D" width="10.059" height="10.059"/>
<rect x="11.633" y="4.872" fill="#1D1D1D" width="10.06" height="10.059"/>
<rect x="1.573" y="14.924" fill="#1D1D1D" width="10.06" height="10.06"/>
<rect x="123.785" y="35.052" fill="#1D1D1D" width="10.06" height="10.058"/>
<rect x="123.785" y="24.991" fill="#1D1D1D" width="10.06" height="10.061"/>
<rect x="123.785" y="14.932" fill="#1D1D1D" width="10.06" height="10.06"/>
<rect x="123.785" y="4.872" fill="#1D1D1D" width="10.06" height="10.061"/>
<rect x="133.845" y="35.052" fill="#1D1D1D" width="10.061" height="10.058"/>
<rect x="143.905" y="35.064" fill="#1D1D1D" width="10.06" height="10.058"/>
<rect x="101.129" y="35.064" fill="#1D1D1D" width="10.06" height="10.057"/>
<rect x="101.129" y="24.99" fill="#1D1D1D" width="10.06" height="10.062"/>
<rect x="101.129" y="14.943" fill="#1D1D1D" width="10.06" height="10.061"/>
<rect x="101.129" y="4.884" fill="#1D1D1D" width="10.06" height="10.06"/>
<rect x="111.189" y="35.064" fill="#1D1D1D" width="10.06" height="10.058"/>
<rect x="111.189" y="19.989" fill="#1D1D1D" width="10.06" height="10.061"/>
<rect x="111.189" y="4.884" fill="#1D1D1D" width="10.06" height="10.06"/>
<rect x="68.444" y="35.067" fill="#1D1D1D" width="10.06" height="10.06"/>
<rect x="68.444" y="25.008" fill="#1D1D1D" width="10.06" height="10.06"/>
<rect x="88.536" y="35.067" fill="#1D1D1D" width="10.06" height="10.06"/>
<rect x="88.536" y="25.008" fill="#1D1D1D" width="10.06" height="10.06"/>
<rect x="78.472" y="14.936" fill="#1D1D1D" width="10.061" height="10.06"/>
<rect x="68.444" y="4.89" fill="#1D1D1D" width="10.059" height="10.06"/>
<rect x="88.536" y="4.872" fill="#1D1D1D" width="10.06" height="10.06"/>
<rect x="46.106" y="35.052" fill="#1D1D1D" width="10.06" height="10.058"/>
<rect x="46.106" y="24.991" fill="#1D1D1D" width="10.06" height="10.061"/>
<rect x="46.106" y="14.932" fill="#1D1D1D" width="10.06" height="10.06"/>
<rect x="46.106" y="4.872" fill="#1D1D1D" width="10.06" height="10.061"/>
<rect x="36.046" y="4.884" fill="#1D1D1D" width="10.06" height="10.06"/>
<rect x="56.166" y="4.884" fill="#1D1D1D" width="10.061" height="10.06"/>
<rect x="36.046" y="35.064" fill="#1D1D1D" width="10.06" height="10.058"/>
<rect x="56.166" y="35.064" fill="#1D1D1D" width="10.061" height="10.058"/>
<g>
	<defs>
		<rect id="SVGID_1_" x="-70.931" y="-116.069" width="504" height="288"/>
	</defs>
	<clipPath id="SVGID_2_">
		<use xlink:href="#SVGID_1_"  overflow="visible"/>
	</clipPath>
	<g clip-path="url(#SVGID_2_)" enable-background="new    ">
		<g>
			<defs>
				<rect id="SVGID_3_" x="213.554" y="33.174" width="16.729" height="15.144"/>
			</defs>
			<clipPath id="SVGID_4_">
				<use xlink:href="#SVGID_3_"  overflow="visible"/>
			</clipPath>
			<polygon clip-path="url(#SVGID_4_)" fill="#353535" points="230.282,37.393 230.264,47.059 221.309,48.318 221.327,38.652 			"/>
			<polygon clip-path="url(#SVGID_4_)" fill="#1F1F1F" points="221.309,48.318 213.554,44.099 213.571,34.433 221.327,38.652 			"/>
			<polygon clip-path="url(#SVGID_4_)" fill="#2B2B2B" points="221.327,38.652 213.571,34.433 222.526,33.174 230.282,37.393 			"/>
		</g>
	</g>
	<g clip-path="url(#SVGID_2_)" enable-background="new    ">
		<g>
			<defs>
				<rect id="SVGID_5_" x="231.455" y="20.992" width="16.747" height="24.81"/>
			</defs>
			<clipPath id="SVGID_6_">
				<use xlink:href="#SVGID_5_"  overflow="visible"/>
			</clipPath>
			<polygon clip-path="url(#SVGID_6_)" fill="#353535" points="248.185,34.876 248.165,44.543 239.211,45.802 239.229,36.136 			"/>
			<polygon clip-path="url(#SVGID_6_)" fill="#1F1F1F" points="239.211,45.802 231.455,41.583 231.473,31.917 239.229,36.136 			"/>
			<polygon clip-path="url(#SVGID_6_)" fill="#2B2B2B" points="239.229,36.136 231.473,31.917 240.429,30.658 248.185,34.876 			"/>
			<polygon clip-path="url(#SVGID_6_)" fill="#353535" points="248.202,25.21 248.185,34.876 239.229,36.136 239.247,26.469 			"/>
			<polygon clip-path="url(#SVGID_6_)" fill="#1F1F1F" points="239.229,36.136 231.473,31.917 231.491,22.25 239.247,26.469 			"/>
			<polygon clip-path="url(#SVGID_6_)" fill="#2B2B2B" points="239.247,26.469 231.491,22.25 240.447,20.991 248.202,25.21 			"/>
		</g>
	</g>
	<g clip-path="url(#SVGID_2_)" enable-background="new    ">
		<g>
			<defs>
				<rect id="SVGID_7_" x="231.491" y="11.333" width="16.729" height="15.136"/>
			</defs>
			<clipPath id="SVGID_8_">
				<use xlink:href="#SVGID_7_"  overflow="visible"/>
			</clipPath>
			<polygon clip-path="url(#SVGID_8_)" fill="#353535" points="248.221,15.552 248.202,25.21 239.247,26.469 239.265,16.811 			"/>
			<polygon clip-path="url(#SVGID_8_)" fill="#1F1F1F" points="239.247,26.469 231.491,22.25 231.51,12.592 239.265,16.811 			"/>
			<polygon clip-path="url(#SVGID_8_)" fill="#2B2B2B" points="239.265,16.811 231.51,12.592 240.465,11.333 248.221,15.552 			"/>
		</g>
	</g>
	<g clip-path="url(#SVGID_2_)" enable-background="new    ">
		<g>
			<defs>
				<rect id="SVGID_9_" x="213.571" y="13.849" width="25.66" height="24.803"/>
			</defs>
			<clipPath id="SVGID_10_">
				<use xlink:href="#SVGID_9_"  overflow="visible"/>
			</clipPath>
			<polygon clip-path="url(#SVGID_10_)" fill="#2B2B2B" points="230.284,27.729 222.528,23.51 231.476,22.252 239.231,26.471 			"/>
			<polygon clip-path="url(#SVGID_10_)" fill="#1F1F1F" points="230.282,37.393 222.526,33.174 222.528,23.51 230.284,27.729 			"/>
			<polygon clip-path="url(#SVGID_10_)" fill="#353535" points="239.231,26.471 239.213,36.138 230.282,37.393 230.284,27.729 			
				"/>
			<polygon clip-path="url(#SVGID_10_)" fill="#353535" points="230.284,27.729 230.265,37.396 221.327,38.652 221.345,28.986 			
				"/>
			<polygon clip-path="url(#SVGID_10_)" fill="#1F1F1F" points="221.327,38.652 213.571,34.433 213.59,24.767 221.345,28.986 			"/>
			<polygon clip-path="url(#SVGID_10_)" fill="#2B2B2B" points="221.345,28.986 213.59,24.767 222.528,23.51 230.284,27.729 			"/>
			<polygon clip-path="url(#SVGID_10_)" fill="#2B2B2B" points="221.363,19.327 213.607,15.108 222.562,13.849 230.318,18.069 			
				"/>
			<polygon clip-path="url(#SVGID_10_)" fill="#1F1F1F" points="221.345,28.986 213.59,24.767 213.607,15.109 221.363,19.327 			"/>
			<polygon clip-path="url(#SVGID_10_)" fill="#353535" points="230.318,18.069 230.3,27.727 221.345,28.986 221.363,19.327 			"/>
		</g>
	</g>
	<g clip-path="url(#SVGID_2_)" enable-background="new    ">
		<g>
			<defs>
				<rect id="SVGID_11_" x="231.51" y="1.666" width="16.729" height="15.145"/>
			</defs>
			<clipPath id="SVGID_12_">
				<use xlink:href="#SVGID_11_"  overflow="visible"/>
			</clipPath>
			<polygon clip-path="url(#SVGID_12_)" fill="#353535" points="248.238,5.886 248.221,15.553 239.265,16.811 239.283,7.145 			"/>
			<polygon clip-path="url(#SVGID_12_)" fill="#1F1F1F" points="239.265,16.811 231.51,12.592 231.527,2.926 239.283,7.144 			"/>
			<polygon clip-path="url(#SVGID_12_)" fill="#2B2B2B" points="239.283,7.145 231.527,2.926 240.483,1.667 248.238,5.886 			"/>
		</g>
	</g>
	<g clip-path="url(#SVGID_2_)" enable-background="new    ">
		<g>
			<defs>
				<rect id="SVGID_13_" x="222.562" y="2.928" width="16.705" height="15.141"/>
			</defs>
			<clipPath id="SVGID_14_">
				<use xlink:href="#SVGID_13_"  overflow="visible"/>
			</clipPath>
			<polygon clip-path="url(#SVGID_14_)" fill="#353535" points="239.268,7.146 239.249,16.813 230.318,18.068 230.32,8.404 			"/>
			<polygon clip-path="url(#SVGID_14_)" fill="#1F1F1F" points="230.318,18.069 222.562,13.85 222.564,4.186 230.32,8.404 			"/>
			<polygon clip-path="url(#SVGID_14_)" fill="#2B2B2B" points="230.32,8.404 222.564,4.185 231.512,2.927 239.268,7.146 			"/>
		</g>
	</g>
	<g clip-path="url(#SVGID_2_)" enable-background="new    ">
		<g>
			<defs>
				<rect id="SVGID_15_" x="213.607" y="4.185" width="16.713" height="15.142"/>
			</defs>
			<clipPath id="SVGID_16_">
				<use xlink:href="#SVGID_15_"  overflow="visible"/>
			</clipPath>
			<polygon clip-path="url(#SVGID_16_)" fill="#353535" points="230.32,8.404 230.303,18.071 221.363,19.327 221.381,9.66 			"/>
			<polygon clip-path="url(#SVGID_16_)" fill="#1F1F1F" points="221.363,19.327 213.607,15.108 213.626,5.442 221.381,9.66 			"/>
			<polygon clip-path="url(#SVGID_16_)" fill="#2B2B2B" points="221.381,9.661 213.626,5.442 222.564,4.186 230.319,8.405 			"/>
		</g>
	</g>
	<g clip-path="url(#SVGID_2_)" enable-background="new    ">
		<g>
			<defs>
				<rect id="SVGID_17_" x="195.259" y="29.367" width="16.729" height="15.144"/>
			</defs>
			<clipPath id="SVGID_18_">
				<use xlink:href="#SVGID_17_"  overflow="visible"/>
			</clipPath>
			<polygon clip-path="url(#SVGID_18_)" fill="#353535" points="211.988,33.585 211.97,43.251 203.015,44.51 203.032,34.844 			"/>
			<polygon clip-path="url(#SVGID_18_)" fill="#1F1F1F" points="203.015,44.51 195.259,40.292 195.277,30.625 203.032,34.844 			"/>
			<polygon clip-path="url(#SVGID_18_)" fill="#2B2B2B" points="203.032,34.844 195.277,30.625 204.232,29.367 211.988,33.585 			
				"/>
		</g>
	</g>
	<g clip-path="url(#SVGID_2_)" enable-background="new    ">
		<g>
			<defs>
				<rect id="SVGID_19_" x="177.374" y="31.916" width="16.728" height="15.144"/>
			</defs>
			<clipPath id="SVGID_20_">
				<use xlink:href="#SVGID_19_"  overflow="visible"/>
			</clipPath>
			<polygon clip-path="url(#SVGID_20_)" fill="#353535" points="194.102,36.134 194.083,45.8 185.128,47.059 185.146,37.393 			"/>
			<polygon clip-path="url(#SVGID_20_)" fill="#1F1F1F" points="185.128,47.059 177.373,42.84 177.391,33.173 185.146,37.393 			"/>
			<polygon clip-path="url(#SVGID_20_)" fill="#2B2B2B" points="185.146,37.393 177.391,33.173 186.346,31.916 194.102,36.134 			
				"/>
		</g>
	</g>
	<g clip-path="url(#SVGID_2_)" enable-background="new    ">
		<g>
			<defs>
				<rect id="SVGID_21_" x="177.39" y="22.248" width="16.729" height="15.145"/>
			</defs>
			<clipPath id="SVGID_22_">
				<use xlink:href="#SVGID_21_"  overflow="visible"/>
			</clipPath>
			<polygon clip-path="url(#SVGID_22_)" fill="#353535" points="194.119,26.467 194.102,36.134 185.146,37.393 185.165,27.726 			
				"/>
			<polygon clip-path="url(#SVGID_22_)" fill="#1F1F1F" points="185.146,37.393 177.391,33.173 177.409,23.507 185.165,27.726 			
				"/>
			<polygon clip-path="url(#SVGID_22_)" fill="#2B2B2B" points="185.165,27.726 177.409,23.507 186.363,22.248 194.119,26.467 			
				"/>
		</g>
	</g>
	<g clip-path="url(#SVGID_2_)" enable-background="new    ">
		<g>
			<defs>
				<rect id="SVGID_23_" x="177.409" y="12.59" width="16.729" height="15.136"/>
			</defs>
			<clipPath id="SVGID_24_">
				<use xlink:href="#SVGID_23_"  overflow="visible"/>
			</clipPath>
			<polygon clip-path="url(#SVGID_24_)" fill="#353535" points="194.138,16.809 194.119,26.467 185.165,27.726 185.183,18.068 			
				"/>
			<polygon clip-path="url(#SVGID_24_)" fill="#1F1F1F" points="185.165,27.726 177.409,23.507 177.427,13.849 185.183,18.068 			
				"/>
			<polygon clip-path="url(#SVGID_24_)" fill="#2B2B2B" points="185.183,18.068 177.428,13.849 186.382,12.59 194.138,16.809 			"/>
		</g>
	</g>
	<g clip-path="url(#SVGID_2_)" enable-background="new    ">
		<g>
			<defs>
				<rect id="SVGID_25_" x="186.382" y="1.666" width="25.643" height="33.178"/>
			</defs>
			<clipPath id="SVGID_26_">
				<use xlink:href="#SVGID_25_"  overflow="visible"/>
			</clipPath>
			<polygon clip-path="url(#SVGID_26_)" fill="#1F1F1F" points="203.032,34.844 195.277,30.625 195.295,20.958 203.051,25.177 			
				"/>
			<polygon clip-path="url(#SVGID_26_)" fill="#2B2B2B" points="203.051,25.177 195.295,20.958 204.251,19.699 212.006,23.918 			
				"/>
			<polygon clip-path="url(#SVGID_26_)" fill="#353535" points="212.006,23.918 211.988,33.585 203.032,34.844 203.051,25.177 			
				"/>
			<polygon clip-path="url(#SVGID_26_)" fill="#1F1F1F" points="203.051,25.177 195.295,20.958 195.313,11.335 203.068,15.553 			
				"/>
			<polygon clip-path="url(#SVGID_26_)" fill="#2B2B2B" points="203.068,15.519 195.313,11.3 204.269,10.041 212.024,14.26 			"/>
			<polygon clip-path="url(#SVGID_26_)" fill="#353535" points="212.024,14.26 212.006,23.918 203.051,25.177 203.068,15.553 
				203.068,15.519 			"/>
			<polygon clip-path="url(#SVGID_26_)" fill="#1F1F1F" points="203.068,15.554 195.313,11.335 195.313,11.301 203.068,15.519 			
				"/>
			<polygon clip-path="url(#SVGID_26_)" fill="#1F1F1F" points="194.138,16.809 186.382,12.59 186.4,2.924 194.155,7.142 			"/>
			<polygon clip-path="url(#SVGID_26_)" fill="#2B2B2B" points="194.155,7.143 186.4,2.923 195.348,1.666 203.104,5.886 			"/>
			<polygon clip-path="url(#SVGID_26_)" fill="#353535" points="203.104,5.885 203.085,15.517 203.068,15.553 194.138,16.809 
				194.155,7.142 			"/>
		</g>
	</g>
	<g clip-path="url(#SVGID_2_)" enable-background="new    ">
		<g>
			<defs>
				<rect id="SVGID_27_" x="159.47" y="34.433" width="16.721" height="15.143"/>
			</defs>
			<clipPath id="SVGID_28_">
				<use xlink:href="#SVGID_27_"  overflow="visible"/>
			</clipPath>
			<polygon clip-path="url(#SVGID_28_)" fill="#353535" points="176.191,38.652 176.173,48.318 167.226,49.576 167.245,39.909 			
				"/>
			<polygon clip-path="url(#SVGID_28_)" fill="#1F1F1F" points="167.226,49.576 159.471,45.356 159.488,35.69 167.245,39.909 			"/>
			<polygon clip-path="url(#SVGID_28_)" fill="#2B2B2B" points="167.244,39.909 159.488,35.69 168.435,34.433 176.191,38.652 			"/>
		</g>
	</g>
	<g clip-path="url(#SVGID_2_)" enable-background="new    ">
		<g>
			<defs>
				<rect id="SVGID_29_" x="159.488" y="24.766" width="16.721" height="15.143"/>
			</defs>
			<clipPath id="SVGID_30_">
				<use xlink:href="#SVGID_29_"  overflow="visible"/>
			</clipPath>
			<polygon clip-path="url(#SVGID_30_)" fill="#353535" points="176.209,28.985 176.191,38.652 167.245,39.909 167.262,30.243 			
				"/>
			<polygon clip-path="url(#SVGID_30_)" fill="#1F1F1F" points="167.244,39.909 159.488,35.69 159.506,26.023 167.262,30.243 			"/>
			<polygon clip-path="url(#SVGID_30_)" fill="#2B2B2B" points="167.262,30.243 159.506,26.023 168.453,24.766 176.209,28.985 			
				"/>
		</g>
	</g>
	<g clip-path="url(#SVGID_2_)" enable-background="new    ">
		<g>
			<defs>
				<rect id="SVGID_31_" x="177.427" y="2.924" width="16.728" height="15.144"/>
			</defs>
			<clipPath id="SVGID_32_">
				<use xlink:href="#SVGID_31_"  overflow="visible"/>
			</clipPath>
			<polygon clip-path="url(#SVGID_32_)" fill="#353535" points="194.155,7.143 194.138,16.81 185.183,18.067 185.201,8.401 			"/>
			<polygon clip-path="url(#SVGID_32_)" fill="#1F1F1F" points="185.183,18.068 177.428,13.849 177.446,4.183 185.201,8.401 			"/>
			<polygon clip-path="url(#SVGID_32_)" fill="#2B2B2B" points="185.201,8.401 177.445,4.182 186.4,2.923 194.155,7.143 			"/>
		</g>
	</g>
	<g clip-path="url(#SVGID_2_)" enable-background="new    ">
		<g>
			<defs>
				<rect id="SVGID_33_" x="168.471" y="4.182" width="16.73" height="15.145"/>
			</defs>
			<clipPath id="SVGID_34_">
				<use xlink:href="#SVGID_33_"  overflow="visible"/>
			</clipPath>
			<polygon clip-path="url(#SVGID_34_)" fill="#353535" points="185.201,8.401 185.183,18.068 176.227,19.326 176.245,9.66 			"/>
			<polygon clip-path="url(#SVGID_34_)" fill="#1F1F1F" points="176.228,19.327 168.472,15.107 168.491,5.442 176.246,9.66 			"/>
			<polygon clip-path="url(#SVGID_34_)" fill="#2B2B2B" points="176.246,9.66 168.491,5.441 177.446,4.182 185.201,8.401 			"/>
		</g>
	</g>
	<g clip-path="url(#SVGID_2_)" enable-background="new    ">
		<g>
			<defs>
				<rect id="SVGID_35_" x="159.506" y="15.108" width="16.721" height="15.135"/>
			</defs>
			<clipPath id="SVGID_36_">
				<use xlink:href="#SVGID_35_"  overflow="visible"/>
			</clipPath>
			<polygon clip-path="url(#SVGID_36_)" fill="#353535" points="176.228,19.327 176.209,28.985 167.263,30.243 167.281,20.584 			
				"/>
			<polygon clip-path="url(#SVGID_36_)" fill="#1F1F1F" points="167.262,30.243 159.506,26.023 159.524,16.366 167.28,20.584 			"/>
			<polygon clip-path="url(#SVGID_36_)" fill="#2B2B2B" points="167.28,20.584 159.524,16.365 168.471,15.107 176.227,19.327 			"/>
		</g>
	</g>
	<g clip-path="url(#SVGID_2_)" enable-background="new    ">
		<g>
			<defs>
				<rect id="SVGID_37_" x="159.524" y="5.441" width="16.721" height="15.143"/>
			</defs>
			<clipPath id="SVGID_38_">
				<use xlink:href="#SVGID_37_"  overflow="visible"/>
			</clipPath>
			<polygon clip-path="url(#SVGID_38_)" fill="#353535" points="176.246,9.66 176.228,19.327 167.281,20.584 167.299,10.918 			"/>
			<polygon clip-path="url(#SVGID_38_)" fill="#1F1F1F" points="167.28,20.584 159.524,16.365 159.542,6.698 167.298,10.917 			"/>
			<polygon clip-path="url(#SVGID_38_)" fill="#2B2B2B" points="167.298,10.918 159.542,6.699 168.49,5.441 176.245,9.66 			"/>
		</g>
	</g>
	<g clip-path="url(#SVGID_2_)" enable-background="new    ">
		<g>
			<defs>
				<rect id="SVGID_39_" x="340.408" y="30.658" width="16.729" height="15.144"/>
			</defs>
			<clipPath id="SVGID_40_">
				<use xlink:href="#SVGID_39_"  overflow="visible"/>
			</clipPath>
			<polygon clip-path="url(#SVGID_40_)" fill="#353535" points="357.138,34.876 357.12,44.542 348.164,45.801 348.183,36.135 			"/>
			<polygon clip-path="url(#SVGID_40_)" fill="#1F1F1F" points="348.164,45.801 340.408,41.583 340.427,31.917 348.183,36.135 			
				"/>
			<polygon clip-path="url(#SVGID_40_)" fill="#2B2B2B" points="348.183,36.135 340.427,31.917 349.383,30.658 357.138,34.876 			
				"/>
		</g>
	</g>
	<g clip-path="url(#SVGID_2_)" enable-background="new    ">
		<g>
			<defs>
				<rect id="SVGID_41_" x="331.454" y="31.917" width="16.729" height="15.144"/>
			</defs>
			<clipPath id="SVGID_42_">
				<use xlink:href="#SVGID_41_"  overflow="visible"/>
			</clipPath>
			<polygon clip-path="url(#SVGID_42_)" fill="#353535" points="348.183,36.135 348.164,45.801 339.209,47.06 339.228,37.394 			"/>
			<polygon clip-path="url(#SVGID_42_)" fill="#1F1F1F" points="339.209,47.06 331.454,42.841 331.472,33.175 339.228,37.394 			"/>
			<polygon clip-path="url(#SVGID_42_)" fill="#2B2B2B" points="339.228,37.394 331.472,33.175 340.427,31.917 348.183,36.135 			
				"/>
		</g>
	</g>
	<g clip-path="url(#SVGID_2_)" enable-background="new    ">
		<g>
			<defs>
				<rect id="SVGID_43_" x="322.498" y="33.175" width="16.729" height="15.144"/>
			</defs>
			<clipPath id="SVGID_44_">
				<use xlink:href="#SVGID_43_"  overflow="visible"/>
			</clipPath>
			<polygon clip-path="url(#SVGID_44_)" fill="#353535" points="339.228,37.394 339.209,47.06 330.254,48.319 330.271,38.653 			"/>
			<polygon clip-path="url(#SVGID_44_)" fill="#1F1F1F" points="330.254,48.319 322.498,44.1 322.517,34.434 330.271,38.653 			"/>
			<polygon clip-path="url(#SVGID_44_)" fill="#2B2B2B" points="330.271,38.653 322.517,34.434 331.472,33.175 339.228,37.394 			
				"/>
		</g>
	</g>
	<g clip-path="url(#SVGID_2_)" enable-background="new    ">
		<g>
			<defs>
				<rect id="SVGID_45_" x="322.517" y="23.509" width="16.722" height="15.144"/>
			</defs>
			<clipPath id="SVGID_46_">
				<use xlink:href="#SVGID_45_"  overflow="visible"/>
			</clipPath>
			<polygon clip-path="url(#SVGID_46_)" fill="#353535" points="339.238,27.729 339.22,37.396 330.271,38.653 330.29,28.986 			"/>
			<polygon clip-path="url(#SVGID_46_)" fill="#1F1F1F" points="330.271,38.653 322.517,34.434 322.534,24.767 330.29,28.986 			"/>
			<polygon clip-path="url(#SVGID_46_)" fill="#2B2B2B" points="330.29,28.986 322.534,24.767 331.482,23.509 339.238,27.729 			"/>
		</g>
	</g>
	<g clip-path="url(#SVGID_2_)" enable-background="new    ">
		<g>
			<defs>
				<rect id="SVGID_47_" x="340.472" y="1.682" width="16.729" height="15.136"/>
			</defs>
			<clipPath id="SVGID_48_">
				<use xlink:href="#SVGID_47_"  overflow="visible"/>
			</clipPath>
			<polygon clip-path="url(#SVGID_48_)" fill="#353535" points="357.2,5.901 357.182,15.56 348.228,16.818 348.245,7.16 			"/>
			<polygon clip-path="url(#SVGID_48_)" fill="#1F1F1F" points="348.228,16.818 340.472,12.599 340.489,2.941 348.245,7.16 			"/>
			<polygon clip-path="url(#SVGID_48_)" fill="#2B2B2B" points="348.245,7.16 340.489,2.941 349.444,1.682 357.2,5.901 			"/>
		</g>
	</g>
	<g clip-path="url(#SVGID_2_)" enable-background="new    ">
		<g>
			<defs>
				<rect id="SVGID_49_" x="331.516" y="2.941" width="16.729" height="15.144"/>
			</defs>
			<clipPath id="SVGID_50_">
				<use xlink:href="#SVGID_49_"  overflow="visible"/>
			</clipPath>
			<polygon clip-path="url(#SVGID_50_)" fill="#353535" points="348.245,7.16 348.228,16.827 339.271,18.085 339.29,8.419 			"/>
			<polygon clip-path="url(#SVGID_50_)" fill="#1F1F1F" points="339.271,18.085 331.516,13.867 331.534,4.2 339.29,8.418 			"/>
			<polygon clip-path="url(#SVGID_50_)" fill="#2B2B2B" points="339.29,8.419 331.534,4.2 340.489,2.941 348.245,7.16 			"/>
		</g>
	</g>
	<g clip-path="url(#SVGID_2_)" enable-background="new    ">
		<g>
			<defs>
				<rect id="SVGID_51_" x="322.526" y="13.852" width="16.721" height="15.135"/>
			</defs>
			<clipPath id="SVGID_52_">
				<use xlink:href="#SVGID_51_"  overflow="visible"/>
			</clipPath>
			<polygon clip-path="url(#SVGID_52_)" fill="#353535" points="339.247,18.071 339.229,27.729 330.282,28.987 330.301,19.329 			
				"/>
			<polygon clip-path="url(#SVGID_52_)" fill="#1F1F1F" points="330.282,28.987 322.526,24.768 322.545,15.111 330.301,19.329 			
				"/>
			<polygon clip-path="url(#SVGID_52_)" fill="#2B2B2B" points="330.301,19.329 322.545,15.11 331.491,13.852 339.247,18.071 			"/>
		</g>
	</g>
	<g clip-path="url(#SVGID_2_)" enable-background="new    ">
		<g>
			<defs>
				<rect id="SVGID_53_" x="322.562" y="4.182" width="16.729" height="15.145"/>
			</defs>
			<clipPath id="SVGID_54_">
				<use xlink:href="#SVGID_53_"  overflow="visible"/>
			</clipPath>
			<polygon clip-path="url(#SVGID_54_)" fill="#353535" points="339.29,8.401 339.271,18.068 330.316,19.326 330.335,9.66 			"/>
			<polygon clip-path="url(#SVGID_54_)" fill="#1F1F1F" points="330.316,19.327 322.562,15.107 322.579,5.442 330.335,9.66 			"/>
			<polygon clip-path="url(#SVGID_54_)" fill="#2B2B2B" points="330.335,9.66 322.579,5.441 331.534,4.182 339.29,8.401 			"/>
		</g>
	</g>
	<g clip-path="url(#SVGID_2_)" enable-background="new    ">
		<g>
			<defs>
				<rect id="SVGID_55_" x="303.752" y="30.658" width="16.721" height="15.143"/>
			</defs>
			<clipPath id="SVGID_56_">
				<use xlink:href="#SVGID_55_"  overflow="visible"/>
			</clipPath>
			<polygon clip-path="url(#SVGID_56_)" fill="#353535" points="320.473,34.876 320.454,44.542 311.508,45.8 311.525,36.134 			"/>
			<polygon clip-path="url(#SVGID_56_)" fill="#1F1F1F" points="311.508,45.8 303.752,41.582 303.77,31.916 311.525,36.134 			"/>
			<polygon clip-path="url(#SVGID_56_)" fill="#2B2B2B" points="311.525,36.134 303.77,31.916 312.717,30.658 320.473,34.876 			"/>
		</g>
	</g>
	<g clip-path="url(#SVGID_2_)" enable-background="new    ">
		<g>
			<defs>
				<rect id="SVGID_57_" x="294.796" y="31.916" width="16.729" height="15.144"/>
			</defs>
			<clipPath id="SVGID_58_">
				<use xlink:href="#SVGID_57_"  overflow="visible"/>
			</clipPath>
			<polygon clip-path="url(#SVGID_58_)" fill="#353535" points="311.525,36.134 311.508,45.8 302.552,47.059 302.57,37.393 			"/>
			<polygon clip-path="url(#SVGID_58_)" fill="#1F1F1F" points="302.552,47.059 294.796,42.84 294.814,33.174 302.57,37.393 			"/>
			<polygon clip-path="url(#SVGID_58_)" fill="#2B2B2B" points="302.57,37.393 294.814,33.174 303.77,31.916 311.525,36.134 			"/>
		</g>
	</g>
	<g clip-path="url(#SVGID_2_)" enable-background="new    ">
		<g>
			<defs>
				<rect id="SVGID_59_" x="285.842" y="33.174" width="16.729" height="15.144"/>
			</defs>
			<clipPath id="SVGID_60_">
				<use xlink:href="#SVGID_59_"  overflow="visible"/>
			</clipPath>
			<polygon clip-path="url(#SVGID_60_)" fill="#353535" points="302.57,37.393 302.552,47.059 293.597,48.318 293.615,38.652 			"/>
			<polygon clip-path="url(#SVGID_60_)" fill="#1F1F1F" points="293.597,48.318 285.842,44.099 285.859,34.433 293.615,38.652 			
				"/>
			<polygon clip-path="url(#SVGID_60_)" fill="#2B2B2B" points="293.615,38.652 285.859,34.433 294.814,33.174 302.57,37.393 			"/>
		</g>
	</g>
	<g clip-path="url(#SVGID_2_)" enable-background="new    ">
		<g>
			<defs>
				<rect id="SVGID_61_" x="294.814" y="22.249" width="16.729" height="15.144"/>
			</defs>
			<clipPath id="SVGID_62_">
				<use xlink:href="#SVGID_61_"  overflow="visible"/>
			</clipPath>
			<polygon clip-path="url(#SVGID_62_)" fill="#353535" points="311.544,26.468 311.525,36.134 302.57,37.393 302.588,27.727 			"/>
			<polygon clip-path="url(#SVGID_62_)" fill="#1F1F1F" points="302.57,37.393 294.814,33.174 294.832,23.508 302.588,27.726 			"/>
			<polygon clip-path="url(#SVGID_62_)" fill="#2B2B2B" points="302.588,27.727 294.832,23.507 303.788,22.249 311.544,26.468 			
				"/>
		</g>
	</g>
	<g clip-path="url(#SVGID_2_)" enable-background="new    ">
		<g>
			<defs>
				<rect id="SVGID_63_" x="294.832" y="12.591" width="16.729" height="15.135"/>
			</defs>
			<clipPath id="SVGID_64_">
				<use xlink:href="#SVGID_63_"  overflow="visible"/>
			</clipPath>
			<polygon clip-path="url(#SVGID_64_)" fill="#353535" points="311.562,16.81 311.544,26.468 302.588,27.727 302.606,18.069 			"/>
			<polygon clip-path="url(#SVGID_64_)" fill="#1F1F1F" points="302.588,27.727 294.832,23.507 294.851,13.85 302.606,18.068 			"/>
			<polygon clip-path="url(#SVGID_64_)" fill="#2B2B2B" points="302.606,18.069 294.851,13.85 303.806,12.591 311.562,16.81 			"/>
		</g>
	</g>
	<g clip-path="url(#SVGID_2_)" enable-background="new    ">
		<g>
			<defs>
				<rect id="SVGID_65_" x="303.806" y="1.666" width="16.721" height="15.144"/>
			</defs>
			<clipPath id="SVGID_66_">
				<use xlink:href="#SVGID_65_"  overflow="visible"/>
			</clipPath>
			<polygon clip-path="url(#SVGID_66_)" fill="#353535" points="320.526,5.886 320.509,15.553 311.562,16.81 311.58,7.143 			"/>
			<polygon clip-path="url(#SVGID_66_)" fill="#1F1F1F" points="311.562,16.81 303.806,12.591 303.824,2.924 311.58,7.143 			"/>
			<polygon clip-path="url(#SVGID_66_)" fill="#2B2B2B" points="311.58,7.143 303.824,2.924 312.771,1.666 320.526,5.886 			"/>
		</g>
	</g>
	<g clip-path="url(#SVGID_2_)" enable-background="new    ">
		<g>
			<defs>
				<rect id="SVGID_67_" x="285.896" y="2.924" width="25.685" height="16.403"/>
			</defs>
			<clipPath id="SVGID_68_">
				<use xlink:href="#SVGID_67_"  overflow="visible"/>
			</clipPath>
			<polygon clip-path="url(#SVGID_68_)" fill="#353535" points="311.58,7.143 311.562,16.81 302.606,18.069 302.624,8.402 			"/>
			<polygon clip-path="url(#SVGID_68_)" fill="#1F1F1F" points="302.606,18.069 294.851,13.85 294.868,4.183 302.624,8.402 			"/>
			<polygon clip-path="url(#SVGID_68_)" fill="#2B2B2B" points="302.624,8.402 294.868,4.183 303.824,2.924 311.58,7.143 			"/>
			<polygon clip-path="url(#SVGID_68_)" fill="#353535" points="302.624,8.402 302.606,18.069 293.651,19.327 293.67,9.661 			"/>
			<polygon clip-path="url(#SVGID_68_)" fill="#1F1F1F" points="293.651,19.327 285.896,15.108 285.914,5.442 293.67,9.66 			"/>
			<polygon clip-path="url(#SVGID_68_)" fill="#2B2B2B" points="293.67,9.661 285.914,5.442 294.868,4.183 302.624,8.402 			"/>
		</g>
	</g>
	<g clip-path="url(#SVGID_2_)" enable-background="new    ">
		<g>
			<defs>
				<rect id="SVGID_69_" x="267.969" y="30.667" width="16.729" height="15.145"/>
			</defs>
			<clipPath id="SVGID_70_">
				<use xlink:href="#SVGID_69_"  overflow="visible"/>
			</clipPath>
			<polygon clip-path="url(#SVGID_70_)" fill="#353535" points="284.697,34.886 284.68,44.553 275.725,45.812 275.743,36.145 			"/>
			<polygon clip-path="url(#SVGID_70_)" fill="#1F1F1F" points="275.725,45.812 267.969,41.593 267.987,31.926 275.743,36.145 			
				"/>
			<polygon clip-path="url(#SVGID_70_)" fill="#2B2B2B" points="275.743,36.145 267.987,31.926 276.941,30.667 284.697,34.886 			
				"/>
		</g>
	</g>
	<g clip-path="url(#SVGID_2_)" enable-background="new    ">
		<g>
			<defs>
				<rect id="SVGID_71_" x="259.014" y="21" width="25.702" height="26.071"/>
			</defs>
			<clipPath id="SVGID_72_">
				<use xlink:href="#SVGID_71_"  overflow="visible"/>
			</clipPath>
			<polygon clip-path="url(#SVGID_72_)" fill="#353535" points="284.716,25.219 284.697,34.886 275.743,36.145 275.761,26.478 			
				"/>
			<polygon clip-path="url(#SVGID_72_)" fill="#1F1F1F" points="275.743,36.145 267.987,31.926 268.005,22.259 275.761,26.478 			
				"/>
			<polygon clip-path="url(#SVGID_72_)" fill="#2B2B2B" points="275.761,26.478 268.005,22.259 276.96,21 284.716,25.219 			"/>
			<polygon clip-path="url(#SVGID_72_)" fill="#353535" points="275.743,36.145 275.724,45.812 266.769,47.071 266.787,37.404 			
				"/>
			<polygon clip-path="url(#SVGID_72_)" fill="#1F1F1F" points="266.769,47.071 259.014,42.852 259.031,33.185 266.787,37.404 			
				"/>
			<polygon clip-path="url(#SVGID_72_)" fill="#2B2B2B" points="266.787,37.404 259.031,33.185 267.987,31.926 275.743,36.145 			
				"/>
		</g>
	</g>
	<g clip-path="url(#SVGID_2_)" enable-background="new    ">
		<g>
			<defs>
				<rect id="SVGID_73_" x="250.093" y="23.507" width="16.729" height="15.145"/>
			</defs>
			<clipPath id="SVGID_74_">
				<use xlink:href="#SVGID_73_"  overflow="visible"/>
			</clipPath>
			<polygon clip-path="url(#SVGID_74_)" fill="#353535" points="266.822,27.726 266.804,37.393 257.848,38.652 257.866,28.985 			
				"/>
			<polygon clip-path="url(#SVGID_74_)" fill="#1F1F1F" points="257.848,38.652 250.093,34.433 250.11,24.766 257.866,28.985 			"/>
			<polygon clip-path="url(#SVGID_74_)" fill="#2B2B2B" points="257.866,28.985 250.11,24.766 259.066,23.507 266.822,27.726 			"/>
		</g>
	</g>
	<g clip-path="url(#SVGID_2_)" enable-background="new    ">
		<g>
			<defs>
				<rect id="SVGID_75_" x="250.11" y="13.849" width="16.73" height="15.136"/>
			</defs>
			<clipPath id="SVGID_76_">
				<use xlink:href="#SVGID_75_"  overflow="visible"/>
			</clipPath>
			<polygon clip-path="url(#SVGID_76_)" fill="#353535" points="266.84,18.068 266.822,27.726 257.866,28.985 257.884,19.327 			"/>
			<polygon clip-path="url(#SVGID_76_)" fill="#1F1F1F" points="257.866,28.985 250.11,24.766 250.129,15.108 257.884,19.327 			"/>
			<polygon clip-path="url(#SVGID_76_)" fill="#2B2B2B" points="257.884,19.327 250.129,15.108 259.084,13.849 266.84,18.068 			"/>
		</g>
	</g>
	<g clip-path="url(#SVGID_2_)" enable-background="new    ">
		<g>
			<defs>
				<rect id="SVGID_77_" x="259.084" y="2.925" width="16.721" height="15.143"/>
			</defs>
			<clipPath id="SVGID_78_">
				<use xlink:href="#SVGID_77_"  overflow="visible"/>
			</clipPath>
			<polygon clip-path="url(#SVGID_78_)" fill="#353535" points="275.805,7.144 275.787,16.811 266.84,18.068 266.858,8.401 			"/>
			<polygon clip-path="url(#SVGID_78_)" fill="#1F1F1F" points="266.84,18.068 259.084,13.849 259.103,4.183 266.858,8.401 			"/>
			<polygon clip-path="url(#SVGID_78_)" fill="#2B2B2B" points="266.858,8.401 259.103,4.182 268.049,2.925 275.805,7.145 			"/>
		</g>
	</g>
	<g clip-path="url(#SVGID_2_)" enable-background="new    ">
		<g>
			<defs>
				<rect id="SVGID_79_" x="250.129" y="4.182" width="16.729" height="15.145"/>
			</defs>
			<clipPath id="SVGID_80_">
				<use xlink:href="#SVGID_79_"  overflow="visible"/>
			</clipPath>
			<polygon clip-path="url(#SVGID_80_)" fill="#353535" points="266.858,8.401 266.84,18.068 257.884,19.327 257.902,9.66 			"/>
			<polygon clip-path="url(#SVGID_80_)" fill="#1F1F1F" points="257.884,19.327 250.129,15.108 250.146,5.441 257.903,9.66 			"/>
			<polygon clip-path="url(#SVGID_80_)" fill="#2B2B2B" points="257.902,9.661 250.146,5.442 259.103,4.183 266.858,8.402 			"/>
		</g>
	</g>
</g>
</svg>
