<?xml version="1.0" encoding="utf-8"?>
<!-- Generator: Adobe Illustrator 15.0.0, SVG Export Plug-In . SVG Version: 6.00 Build 0)  -->
<!DOCTYPE svg PUBLIC "-//W3C//DTD SVG 1.1//EN" "http://www.w3.org/Graphics/SVG/1.1/DTD/svg11.dtd">
<svg version="1.1" id="Layer_1" xmlns="http://www.w3.org/2000/svg" xmlns:xlink="http://www.w3.org/1999/xlink" x="0px" y="0px"
	 width="732px" height="326px" viewBox="0 0 732 326" enable-background="new 0 0 732 326" xml:space="preserve">
<g>
	<polygon fill="#018DC0" points="732,326 366,326 0,326 0,163 0,0 366,0 732,0 732,163 	"/>
	<path fill="#018EC1" d="M6.875,3.6c0.339-0.121,358.093-0.195,358.61-0.195S723.756,3.479,724.093,3.6s0.549,159.407,0.549,159.591
		s-0.21,159.47-0.549,159.59c-0.339,0.121-358.092,0.193-358.608,0.193c-0.518,0-358.271-0.072-358.61-0.193
		c-0.339-0.12-0.548-159.406-0.548-159.59S6.537,3.721,6.875,3.6z"/>
	<path fill="#018EC2" d="M13.751,7.2c0.677-0.241,350.187-0.391,351.219-0.391c1.034,0,350.542,0.149,351.22,0.391
		c0.677,0.242,1.097,155.812,1.097,156.181s-0.419,155.939-1.097,156.18c-0.68,0.241-350.187,0.393-351.22,0.393
		c-1.034,0-350.542-0.149-351.219-0.393c-0.678-0.239-1.097-155.812-1.097-156.18C12.654,163.013,13.073,7.441,13.751,7.2z"/>
	<path fill="#018FC3" d="M20.626,10.8c1.016-0.362,342.278-0.586,343.829-0.586c1.551,0,342.812,0.224,343.829,0.586
		c1.017,0.362,1.646,152.219,1.646,152.771c0,0.553-0.629,152.41-1.646,152.771c-1.018,0.362-342.278,0.586-343.829,0.586
		s-342.812-0.224-343.829-0.586c-1.017-0.36-1.645-152.22-1.645-152.771C18.981,163.019,19.609,11.162,20.626,10.8z"/>
	<path fill="#0190C4" d="M27.502,14.4c1.355-0.483,334.37-0.781,336.438-0.781c2.067,0,335.083,0.298,336.438,0.781
		c1.355,0.482,2.193,148.625,2.193,149.361c0,0.736-0.838,148.879-2.193,149.361c-1.354,0.481-334.37,0.781-336.438,0.781
		s-335.083-0.298-336.438-0.781c-1.355-0.482-2.193-148.625-2.193-149.361C25.309,163.025,26.146,14.883,27.502,14.4z"/>
	<path fill="#0191C5" d="M34.377,18c1.694-0.603,326.463-0.976,329.048-0.976S690.779,17.397,692.472,18
		c1.694,0.603,2.742,145.032,2.742,145.952s-1.048,145.349-2.742,145.953c-1.691,0.603-326.462,0.976-329.047,0.976
		s-327.354-0.373-329.048-0.976c-1.694-0.604-2.742-145.032-2.742-145.953S32.684,18.604,34.377,18z"/>
	<path fill="#0191C6" d="M41.252,21.601c2.033-0.724,318.556-1.172,321.658-1.172c3.102,0,319.624,0.448,321.657,1.172
		c2.03,0.724,3.29,141.438,3.29,142.542c0,1.105-1.26,141.819-3.29,142.543c-2.033,0.727-318.556,1.174-321.657,1.174
		c-3.103,0-319.625-0.447-321.658-1.174c-2.033-0.724-3.29-141.438-3.29-142.543C37.963,163.039,39.22,22.324,41.252,21.601z"/>
	<path fill="#0192C7" d="M48.128,25.2c2.372-0.845,310.648-1.367,314.267-1.367s311.896,0.522,314.269,1.367
		c2.371,0.844,3.838,137.845,3.838,139.133c0,1.289-1.467,138.289-3.838,139.133c-2.372,0.845-310.648,1.367-314.269,1.367
		c-3.618,0-311.895-0.522-314.267-1.367c-2.372-0.844-3.838-137.844-3.838-139.133S45.756,26.044,48.128,25.2z"/>
	<path fill="#0193C8" d="M55.004,28.8c2.71-0.965,302.74-1.562,306.876-1.562c4.136,0,304.166,0.597,306.877,1.562
		c2.71,0.965,4.388,134.251,4.388,135.726c0,1.473-1.678,134.759-4.388,135.725c-2.711,0.965-302.741,1.562-306.877,1.562
		c-4.136,0-304.166-0.598-306.876-1.562c-2.71-0.966-4.387-134.252-4.387-135.725C50.617,163.051,52.293,29.765,55.004,28.8z"/>
	<path fill="#0193C9" d="M61.879,32.4c3.049-1.086,294.833-1.758,299.486-1.758c4.652,0,296.437,0.672,299.484,1.758
		c3.051,1.085,4.937,130.657,4.937,132.314c0,1.656-1.886,131.229-4.937,132.313c-3.05,1.086-294.833,1.758-299.484,1.758
		c-4.653,0-296.438-0.672-299.486-1.758c-3.049-1.086-4.935-130.657-4.935-132.313C56.944,163.058,58.83,33.486,61.879,32.4z"/>
	<path fill="#0194CA" d="M68.755,36c3.388-1.207,286.926-1.953,292.095-1.953c5.17,0,288.707,0.746,292.096,1.953
		c3.388,1.207,5.481,127.064,5.481,128.905c0,1.841-2.096,127.698-5.481,128.903c-3.391,1.205-286.926,1.951-292.096,1.951
		c-5.169,0-288.708-0.746-292.095-1.951c-3.388-1.205-5.483-127.062-5.483-128.904C63.271,163.064,65.367,37.207,68.755,36z"/>
	<path fill="#0195CB" d="M75.63,39.6c3.727-1.326,279.019-2.146,284.705-2.146c5.688,0,280.978,0.82,284.704,2.146
		c3.726,1.327,6.032,123.471,6.032,125.495c0,2.025-2.308,124.169-6.032,125.495c-3.725,1.327-279.018,2.148-284.704,2.148
		c-5.688,0-280.979-0.821-284.705-2.148c-3.726-1.326-6.032-123.47-6.032-125.495C69.598,163.07,71.903,40.927,75.63,39.6z"/>
	<path fill="#0196CC" d="M82.506,43.2c4.065-1.448,271.11-2.343,277.314-2.343c6.203,0,273.249,0.895,277.313,2.343
		c4.064,1.447,6.58,119.876,6.58,122.085c0,2.21-2.516,120.639-6.58,122.086s-271.11,2.344-277.313,2.344
		c-6.204,0-273.249-0.896-277.314-2.344c-4.065-1.448-6.58-119.876-6.58-122.086C75.926,163.076,78.44,44.647,82.506,43.2z"/>
	<path fill="#0196CD" d="M89.381,46.801c4.404-1.568,263.203-2.539,269.924-2.539c6.721,0,265.52,0.971,269.923,2.539
		c4.404,1.568,7.13,116.282,7.13,118.676c0,2.396-2.726,117.107-7.13,118.678c-4.403,1.566-263.203,2.539-269.923,2.539
		c-6.721,0-265.52-0.973-269.924-2.539c-4.404-1.568-7.128-116.282-7.128-118.678C82.253,163.083,84.978,48.369,89.381,46.801z"/>
	<path fill="#0197CE" d="M96.256,50.4c4.743-1.689,255.296-2.734,262.534-2.734c7.238,0,257.79,1.044,262.533,2.734
		C626.066,52.089,629,163.09,629,165.667s-2.934,113.577-7.677,115.267c-4.743,1.688-255.295,2.733-262.533,2.733
		c-7.237,0-257.791-1.045-262.534-2.733c-4.743-1.688-7.676-112.688-7.676-115.267S91.514,52.089,96.256,50.4z"/>
	<path fill="#0198CF" d="M103.132,54c5.082-1.81,247.388-2.929,255.144-2.929c7.755,0,250.061,1.119,255.143,2.929
		s8.225,109.095,8.225,111.855c0,2.762-3.143,110.049-8.225,111.856c-5.082,1.81-247.389,2.929-255.144,2.929
		s-250.062-1.117-255.144-2.929c-5.082-1.81-8.225-109.096-8.225-111.856C94.907,163.095,98.05,55.81,103.132,54z"/>
	<path fill="#0198D0" d="M110.007,57.601c5.42-1.931,239.481-3.125,247.752-3.125s242.332,1.194,247.753,3.125
		s8.773,105.501,8.773,108.447c0,2.945-3.354,106.519-8.773,108.446c-5.421,1.931-239.479,3.125-247.753,3.125
		c-8.271,0-242.332-1.194-247.752-3.125c-5.42-1.93-8.773-105.501-8.773-108.446C101.234,163.102,104.587,59.53,110.007,57.601z"/>
	<path fill="#0199D1" d="M116.883,61.201c5.76-2.051,231.574-3.32,240.362-3.32c8.789,0,234.603,1.27,240.362,3.32
		c5.759,2.05,9.32,101.908,9.32,105.038c0,3.13-3.562,102.985-9.32,105.038c-5.762,2.051-231.573,3.318-240.362,3.318
		s-234.603-1.27-240.362-3.318c-5.759-2.053-9.321-101.908-9.321-105.038C107.562,163.109,111.124,63.251,116.883,61.201z"/>
	<path fill="#019AD2" d="M123.759,64.801c6.098-2.172,223.666-3.515,232.973-3.515c9.305,0,226.872,1.343,232.971,3.515
		c6.099,2.171,9.871,98.314,9.871,101.629c0,3.313-3.772,99.455-9.871,101.627c-6.1,2.172-223.666,3.517-232.971,3.517
		c-9.307,0-226.875-1.345-232.973-3.517c-6.099-2.172-9.87-98.312-9.87-101.627S117.66,66.972,123.759,64.801z"/>
	<path fill="#019BD3" d="M130.634,68.4c6.437-2.292,215.758-3.71,225.581-3.71c9.822,0,219.146,1.417,225.581,3.71
		c6.438,2.292,10.419,94.721,10.419,98.219c0,3.497-3.979,95.926-10.419,98.219c-6.437,2.292-215.759,3.709-225.581,3.709
		c-9.823,0-219.145-1.417-225.581-3.709c-6.438-2.293-10.418-94.722-10.418-98.219C120.215,163.121,124.196,70.692,130.634,68.4z"/>
	<path fill="#019BD4" d="M137.509,72c6.776-2.413,207.852-3.905,218.191-3.905c10.339,0,211.415,1.492,218.188,3.905
		c6.776,2.413,10.969,91.127,10.969,94.809c0,3.684-4.19,92.396-10.969,94.812c-6.773,2.412-207.852,3.905-218.188,3.905
		c-10.34,0-211.415-1.493-218.191-3.905c-6.776-2.413-10.966-91.128-10.966-94.812C126.543,163.127,130.733,74.413,137.509,72z"/>
	<path fill="#019CD4" d="M144.385,75.601C151.5,73.068,344.329,71.5,355.186,71.5s203.686,1.567,210.8,4.101
		C573.1,78.135,577.5,163.134,577.5,167s-4.4,88.866-11.516,91.398c-7.114,2.533-199.942,4.102-210.8,4.102
		c-10.856,0-203.686-1.566-210.801-4.102c-7.114-2.532-11.515-87.532-11.515-91.398C132.87,163.134,137.271,78.134,144.385,75.601z"
		/>
	<path fill="#029DD5" d="M151.26,79.201c7.453-2.654,192.036-4.296,203.41-4.296c11.373,0,195.956,1.642,203.41,4.296
		c7.453,2.654,12.062,83.939,12.062,87.99c0,4.05-4.608,85.336-12.062,87.988c-7.454,2.654-192.037,4.297-203.41,4.297
		c-11.374,0-195.957-1.643-203.41-4.297c-7.453-2.652-12.063-83.938-12.063-87.988C139.197,163.141,143.807,81.854,151.26,79.201z"
		/>
	<path fill="#029DD6" d="M158.136,82.801c7.792-2.774,184.128-4.491,196.021-4.491c11.891,0,188.227,1.717,196.019,4.491
		c7.793,2.774,12.611,80.347,12.611,84.58c0,4.234-4.818,81.807-12.611,84.58c-7.792,2.775-184.128,4.491-196.019,4.491
		c-11.892,0-188.228-1.716-196.021-4.491c-7.792-2.773-12.611-80.346-12.611-84.58C145.525,163.147,150.344,85.575,158.136,82.801z"
		/>
	<path fill="#029ED7" d="M165.012,86.4c8.131-2.896,176.221-4.688,188.628-4.688c12.407,0,180.496,1.791,188.627,4.688
		c8.134,2.896,13.16,76.753,13.16,81.17c0,4.42-5.026,78.275-13.16,81.172c-8.132,2.896-176.221,4.688-188.627,4.688
		c-12.407,0-180.498-1.791-188.628-4.688c-8.131-2.896-13.16-76.752-13.16-81.171C151.852,163.153,156.881,89.296,165.012,86.4z"/>
	<path fill="#029FD8" d="M171.887,90.001c8.47-3.017,168.313-4.882,181.238-4.882c12.924,0,172.768,1.865,181.238,4.882
		c8.47,3.016,13.709,73.159,13.709,77.761c0,4.604-5.239,74.746-13.709,77.764c-8.473,3.016-168.314,4.882-181.238,4.882
		c-12.925,0-172.769-1.866-181.238-4.882c-8.469-3.018-13.708-73.158-13.708-77.764C158.179,163.16,163.417,93.017,171.887,90.001z"
		/>
	<path fill="#02A0D9" d="M178.762,93.601c8.809-3.137,160.406-5.076,173.848-5.076c13.44,0,165.039,1.939,173.847,5.076
		c8.81,3.138,14.258,69.565,14.258,74.354c0,4.786-5.448,71.215-14.258,74.352c-8.809,3.139-160.406,5.076-173.847,5.076
		c-13.442,0-165.041-1.938-173.848-5.076c-8.808-3.137-14.256-69.563-14.256-74.352C164.506,163.166,169.954,96.737,178.762,93.601z
		"/>
	<path fill="#02A0DA" d="M185.638,97.2c9.147-3.257,152.499-5.271,166.457-5.271c13.959,0,157.311,2.016,166.457,5.271
		c9.147,3.258,14.808,65.972,14.808,70.94c0,4.971-5.658,67.688-14.808,70.942c-9.146,3.258-152.498,5.272-166.457,5.272
		c-13.958,0-157.31-2.017-166.457-5.272s-14.805-65.972-14.805-70.942C170.833,163.172,176.49,100.458,185.638,97.2z"/>
	<path fill="#02A1DB" d="M192.513,100.801c9.486-3.378,144.59-5.468,159.067-5.468c14.476,0,149.58,2.09,159.066,5.468
		c9.484,3.378,15.354,62.378,15.354,67.532c0,5.155-5.867,64.155-15.354,67.532c-9.486,3.379-144.592,5.469-159.066,5.469
		s-149.581-2.09-159.067-5.469c-9.486-3.377-15.353-62.377-15.353-67.532C177.16,163.179,183.027,104.179,192.513,100.801z"/>
	<path fill="#02A2DC" d="M199.389,104.4c9.825-3.499,136.684-5.662,151.676-5.662c14.991,0,141.851,2.163,151.676,5.662
		s15.899,58.784,15.899,64.124c0,5.34-6.074,60.625-15.899,64.123s-136.685,5.662-151.676,5.662
		c-14.993,0-141.852-2.164-151.676-5.662c-9.825-3.498-15.901-58.783-15.901-64.123C183.487,163.185,189.563,107.899,199.389,104.4z
		"/>
	<path fill="#02A2DD" d="M206.265,108.001c10.163-3.62,128.776-5.858,144.286-5.858c15.509,0,134.122,2.238,144.286,5.858
		c10.164,3.619,16.45,55.19,16.45,60.714c0,5.521-6.286,57.094-16.45,60.713c-10.164,3.62-128.776,5.858-144.286,5.858
		c-15.51,0-134.123-2.238-144.286-5.858c-10.164-3.619-16.45-55.188-16.45-60.713C189.814,163.191,196.101,111.62,206.265,108.001z"
		/>
	<path fill="#02A3DE" d="M213.14,111.601c10.502-3.739,120.869-6.053,136.896-6.053c16.026,0,126.393,2.312,136.896,6.053
		c10.502,3.74,16.998,51.599,16.998,57.305c0,5.708-6.496,53.562-16.998,57.305c-10.503,3.74-120.869,6.053-136.896,6.053
		c-16.027,0-126.393-2.312-136.896-6.053c-10.503-3.74-16.998-51.597-16.998-57.305S202.637,115.341,213.14,111.601z"/>
	<path fill="#02A4DF" d="M220.015,115.201c10.842-3.861,112.961-6.249,129.506-6.249c16.543,0,118.662,2.388,129.504,6.249
		c10.842,3.859,17.547,48.003,17.547,53.895c0,5.893-6.705,50.034-17.547,53.896c-10.843,3.86-112.961,6.249-129.504,6.249
		c-16.545,0-118.665-2.389-129.506-6.249c-10.841-3.859-17.546-48.003-17.546-53.896
		C202.469,163.204,209.174,119.062,220.015,115.201z"/>
	<path fill="#02A5E0" d="M226.891,118.801c11.18-3.98,105.054-6.443,122.114-6.443c17.061,0,110.937,2.462,122.114,6.443
		c11.18,3.981,18.096,44.41,18.096,50.485s-6.916,46.504-18.096,50.483c-11.18,3.98-105.054,6.443-122.114,6.443
		s-110.935-2.463-122.114-6.443c-11.18-3.979-18.095-44.408-18.095-50.483C208.796,163.21,215.71,122.782,226.891,118.801z"/>
	<path fill="#02A5E1" d="M233.766,122.401c11.519-4.103,97.146-6.64,114.724-6.64c17.577,0,103.205,2.537,114.724,6.64
		c11.521,4.102,18.646,40.815,18.646,47.076c0,6.26-7.125,42.975-18.646,47.074c-11.519,4.102-97.146,6.641-114.724,6.641
		c-17.578,0-103.205-2.537-114.724-6.641c-11.519-4.102-18.643-40.814-18.643-47.074S222.248,126.502,233.766,122.401z"/>
	<path fill="#02A6E2" d="M240.642,126.001c11.857-4.223,89.239-6.834,107.333-6.834c18.095,0,95.476,2.611,107.333,6.834
		c11.858,4.222,19.192,37.223,19.192,43.666c0,6.442-7.334,39.442-19.192,43.665c-11.855,4.223-89.237,6.834-107.333,6.834
		c-18.095,0-95.476-2.611-107.333-6.834s-19.191-37.223-19.191-43.665C221.451,163.224,228.784,130.223,240.642,126.001z"/>
	<path fill="#02A7E3" d="M247.517,129.601c12.196-4.344,81.332-7.029,99.943-7.029s87.746,2.686,99.942,7.029
		c12.195,4.343,19.738,33.628,19.738,40.256c0,6.629-7.543,35.912-19.738,40.257c-12.196,4.344-81.332,7.028-99.942,7.028
		s-87.747-2.687-99.943-7.028c-12.196-4.343-19.74-33.628-19.74-40.257C227.777,163.229,235.321,133.944,247.517,129.601z"/>
	<path fill="#02A7E4" d="M254.393,133.201c12.535-4.464,73.424-7.226,92.552-7.226c19.128,0,80.017,2.762,92.552,7.226
		c12.535,4.464,20.289,30.035,20.289,36.847c0,6.812-7.754,32.384-20.289,36.847c-12.535,4.465-73.424,7.227-92.552,7.227
		c-19.128,0-80.017-2.762-92.552-7.227c-12.535-4.463-20.288-30.033-20.288-36.847C234.104,163.236,241.857,137.665,254.393,133.201
		z"/>
	<path fill="#02A8E5" d="M261.269,136.801c12.873-4.584,65.516-7.42,85.162-7.42s72.288,2.835,85.162,7.42
		s20.837,26.442,20.837,33.438c0,6.995-7.963,28.853-20.837,33.437c-12.874,4.585-65.517,7.42-85.162,7.42
		s-72.289-2.835-85.162-7.42c-12.874-4.584-20.837-26.439-20.837-33.437C240.432,163.243,248.395,141.385,261.269,136.801z"/>
	<path fill="#02A9E6" d="M268.144,140.401c13.212-4.705,57.609-7.615,77.771-7.615s64.559,2.91,77.771,7.615
		c13.214,4.705,21.387,22.848,21.387,30.027c0,7.182-8.172,25.323-21.387,30.027c-13.213,4.705-57.607,7.615-77.771,7.615
		s-64.559-2.91-77.771-7.615c-13.213-4.704-21.385-22.848-21.385-30.027C246.759,163.25,254.931,145.106,268.144,140.401z"/>
	<path fill="#02AAE7" d="M275.019,144.001c13.552-4.826,49.702-7.811,70.381-7.811c20.679,0,56.829,2.983,70.381,7.811
		c13.552,4.826,21.934,19.254,21.934,26.618c0,7.363-8.382,21.793-21.934,26.617c-13.555,4.826-49.702,7.812-70.381,7.812
		c-20.68,0-56.831-2.983-70.381-7.812c-13.551-4.824-21.933-19.254-21.933-26.617C253.086,163.255,261.468,148.827,275.019,144.001z
		"/>
	<path fill="#02AAE8" d="M281.895,147.601c13.89-4.946,41.794-8.006,62.99-8.006c21.196,0,49.102,3.061,62.99,8.006
		c13.891,4.946,22.482,15.661,22.482,23.208c0,7.551-8.594,18.265-22.482,23.209c-13.891,4.946-41.794,8.006-62.99,8.006
		c-21.196,0-49.1-3.06-62.99-8.006c-13.891-4.944-22.481-15.658-22.481-23.209C259.413,163.262,268.004,152.547,281.895,147.601z"/>
	<path fill="#02ABE9" d="M423,171c0,7.732-8.801,14.732-23.03,19.799c-14.229,5.067-33.887,8.201-55.6,8.201
		s-41.371-3.134-55.6-8.201c-14.229-5.064-23.03-12.064-23.03-19.799c0-7.732,8.801-14.732,23.03-19.799
		c14.229-5.067,33.887-8.201,55.6-8.201s41.37,3.134,55.6,8.201C414.199,156.268,423,163.268,423,171z"/>
</g>
</svg>
