<?xml version="1.0" encoding="utf-8"?>
<!-- Generator: Adobe Illustrator 19.1.0, SVG Export Plug-In . SVG Version: 6.00 Build 0)  -->
<svg version="1.1" id="Layer_1" xmlns="http://www.w3.org/2000/svg" xmlns:xlink="http://www.w3.org/1999/xlink" x="0px" y="0px"
	 viewBox="0 0 391.3 119.6" style="enable-background:new 0 0 391.3 119.6;" xml:space="preserve">
<style type="text/css">
	.st0{fill:#003767;}
	.st1{fill:#58595B;}
</style>
<path class="st0" d="M177.1,71.6c2.7,0,4.5-2,4.5-4.7c0-2.7-1.8-4.6-4.5-4.6c-2.7,0-4.5,2-4.5,4.7C172.6,69.7,174.4,71.6,177.1,71.6
	L177.1,71.6z M177,71c-2.7,0-3.1-2.6-3.1-4.1c0-1.4,0.4-4,3.1-4c2.7,0,3.1,2.6,3.1,4.1C180.1,68.4,179.7,71,177,71L177,71z"/>
<path class="st0" d="M325.1,70.8l9-20.8l9.4,20.7L325.1,70.8z M354.6,79.8l-16.2-36.6c-0.4-1-0.7-2.3-1.5-2.3c-0.5,0-0.8-0.2-1.1,0
	c-0.7-0.1,0.6,0.5-2.7,1.8c-3.3,1.3-3.2,1.2-3.2,1.2v2.8c-2.3-0.1,2.8-0.9,1.4,2.2c-0.6,1.3-11.8,28.4-11.8,28.4
	c-2,4.3-3.3,5.7-5.8,6.6v2.1h8.8v-2.1c-1.8-0.3-2.8-2.8-0.6-6.4l1.4-3.3l22.1,0.1l2.3,4.9c1.2,3.3-0.3,4.3-1.2,4.7v2.2h13.2V84
	C358.3,83.4,355.5,82.2,354.6,79.8L354.6,79.8z"/>
<path class="st0" d="M217.1,39.7l-1.8,1.2H181l-1.8-1.2h-2l0.1,9.9h3.2c0-6.2,8-5.7,12.6-5.7h2.7v32.8c0,4.2,0.1,6.9-3.7,6.9
	l0.1,2.6h11.9v-2.6c-0.1,0-3.1,0.6-3.1-6.2V44h2.8c4.6,0,12,0.5,12,5.7h3.2l0-9.9H217.1z"/>
<path class="st0" d="M367.3,50.1c0-4.7,5.7-6.9,8.8-6.9c4.9,0,8.3,5.7,10.2,10.2h1.8V42.2h-2.7c-0.2,0.6-0.5,1.3-1.2,1.3
	c-0.7,0-1.6-0.7-3-1.4c-1.4-0.7-3.2-1.4-5.7-1.4c-6.6,0-12.5,5.2-12.5,13c0,15.2,23.7,7.7,23.7,22.8c0,4.8-5.4,7.4-9,7.4
	c-8.2,0-12.8-8.7-13.9-11.6h-2.2v13.9h3.6c0.1-0.8,0.4-2.3,1.2-2.3c1.4,0,5.1,2.9,10.3,2.9c7.9,0,14.6-3.5,14.6-14.8
	C391.3,55.5,367.3,62.1,367.3,50.1L367.3,50.1z"/>
<path class="st0" d="M251.3,83.5c-7.4,0-18.3,0-18.3,0V64.4c1.7,0,8.3,0,10.1,0c2.5,0,2.2,1.2,2.8,4h2.3v-9.6h-2.3
	c-0.7,0.8-0.4,3-2.8,3c-1.8,0-8.4,0-10.1,0V44c0,0,10.7,0,13.4,0c2.8,0,6.6,0.8,8.6,5.8h2V40h-1.7c0,0,0,0.9-2,0.9
	c-2,0-29.2,0-29.2,0v2.5c0,0,3.4,0.8,3.4,5.4v29.9c0,4.6-3.4,5.4-3.4,5.4v2.5h36.5v-10h-1.8C258.8,76.6,258.7,83.5,251.3,83.5
	L251.3,83.5z"/>
<path class="st0" d="M306.5,81.7c-2.4-3-9.8-12.6-16.3-20.6c3.8-4.4,9-10,10.7-12.2c5-6.2,8.9-5.2,8.9-5.2v-3l-12.1,0v2.9
	c0,0,3.2-0.8,2.7,1.4c-0.3,1.3-8.6,9.7-12.1,13.8c-1.8-2.2-10.4-12-10.4-13.5s2.5-1.3,2.5-1.3v-3.2l-15.2,0.1v2.9c2,0,4.4,1.6,5.4,3
	c0.6,0.8,7.2,9,13.2,16.5c-6.1,7.2-12.8,15.4-14,17.1c-2.5,3.4-6.3,3-6.3,3v2.7h11.6v-2.6c0,0-1.2,0.4-1.6-1.1
	c-0.8-2.5,7.6-10.5,12.6-16.3c3.5,4.4,11.6,13.4,11.6,15.1c0,1.7-1.9,2.1-1.9,2.1v2.9h16.3v-3.1C311,82.9,307.5,83,306.5,81.7
	L306.5,81.7z"/>
<path class="st0" d="M181.9,71.6v-0.5c0,0,0.7-0.2,0.7-1.1v-6c0-0.9-0.7-1.1-0.7-1.1v-0.5c0,0,5.5,0,5.9,0c0.4,0,0.4-0.2,0.4-0.2
	h0.3v2.4h-0.4c-0.4-1.4-1.3-1.3-1.8-1.3c-0.5,0-2.6,0-2.6,0v6.8c0,1,0.7,1,0.7,1l0,0.5L181.9,71.6z"/>
<path class="st0" d="M183.5,67.1c0,0,1.7,0,2.2,0c0.5,0,0.7,0.2,0.9,0.8h0.5v-2.3h-0.5c-0.1,0.6-0.4,0.8-0.9,0.8c-0.5,0-2.2,0-2.2,0
	V67.1z"/>
<path class="st0" d="M31.2,82v-1.1c0,0,3.9-1.1,6.5-5.7c1.1-2.5,9-19.6,11.8-25.7c-0.6,0-2.5-0.1-2.5-0.1v-5.6l0.1-3l3,0.1
	c0,0,1.2,0,4-1c1.7-0.6,2.2-1,2.4-1.1c0.3-0.2,0.9-0.6,1.8-0.8c0.7-0.2,1.4-0.1,1.7-0.1l0.1,0h0c2.8,0,3.8,2.5,4.2,3.6l0.2,0.4
	c0,0.1,2.7,5.5,5.9,12.2l26.7-19.1H60L48.6,0.2L37.1,34.9H0l30,21.5L18.5,91.1L31.2,82z"/>
<path class="st0" d="M52.3,67.2c2.8,0,4.1,0,7-0.1c-1.4-2.7-2-4-3.6-7.2C54.1,63.2,53.5,64.6,52.3,67.2L52.3,67.2z"/>
<path class="st1" d="M53.3,48.7C52.7,50,41.1,76.4,41.1,76.4c-2.1,4.2-3.4,5.5-5.9,6.5v2.1h12.4v-2.1c-1.8-0.3-5.3-2.5-3.1-6
	l1.4-3.2l18.7-0.1l2.3,4.8c1.2,3.3-1.4,4.2-2.4,4.6v2.1h17.9v-2.1c-1.3-0.6-3.3-1.8-4.2-4.1L61.5,43c-0.4-1-0.8-2.3-1.6-2.3
	c-0.5,0-0.8-0.1-1.1,0c-0.7-0.1-0.2,0.5-3.7,1.8c-3.4,1.3-4.9,1.2-4.9,1.2v2.8C50.3,46.5,54.3,46.6,53.3,48.7L53.3,48.7z M55.4,53.1
	l8.2,17l-15.7,0.1L55.4,53.1z"/>
<path class="st1" d="M118.6,51.4l-2.5,0c0,0-1.2-7.1-11.6-7.1c-10.4,0-11.1,10.5-11.1,17.9c0,9,1.4,19.2,13.4,19.2
	c5.4,0,9-1.8,12.4-5.4l0.3-0.4l2.2,3.1c-5.9,5-9.3,7.1-16.8,7.1c-14.2,0-21.8-9.5-21.8-23c0-11.8,8.4-22,22.4-22
	c4,0,10.6,3.9,10.1,0.5h3.1L118.6,51.4z"/>
<path class="st1" d="M141.3,41.3v2.9c0,0-3-0.6-3,4.2v19.8c0,6.3,3.7,12.4,11.7,12.4c9.3,0,13-4.8,13-10V46.5c0-2.5-3.6-2.4-3.6-2.4
	v-2.9h10.3v2.9c0,0-3.3-0.6-3.3,4.2v22.2c0,8.1-6.5,15.4-19,15.4c-10.3,0-18.7-7.1-18.7-16.5V48.4c0-4.8-3-4.2-3-4.2v-2.9H141.3z"/>
<rect x="33.5" y="92.4" class="st0" width="354.8" height="1.3"/>
<rect x="33.5" y="118.8" class="st0" width="354.8" height="1.3"/>
<path class="st0" d="M39.5,108.4L39.5,108.4l6.3,0.1v-0.1l-3.1-6.6h-0.1L39.5,108.4z M35.2,113.2c0.2-0.1,0.5-0.4,0.8-0.8
	c0.1-0.1,0.2-0.2,0.2-0.4c0.1-0.1,0.1-0.3,0.2-0.4l4.9-10.3c0-0.1,0.1-0.2,0.1-0.4c0-0.1,0.1-0.3,0.1-0.4c0-0.1,0.1-0.2,0.1-0.4
	c0-0.1,0-0.2,0-0.4c0-0.1-0.1-0.2-0.3-0.3c-0.2-0.1-0.4-0.1-0.7-0.1h-0.1h-0.1v-0.9c0.7,0,1.2-0.2,1.6-0.3c0.4-0.2,0.8-0.4,1-0.6
	c0.1,0,0.2-0.1,0.2-0.2l0.2-0.2h0.9l6.3,13.2c0.5,1,0.9,1.7,1.2,2.2c0.3,0.4,0.6,0.7,0.9,0.9l0,0l0,0v0.9h-6.9v-0.9
	c0.4,0,0.7-0.1,0.9-0.3c0.2-0.2,0.4-0.5,0.4-0.8l0-0.1v-0.1l0-0.2l-0.1-0.2v0l0,0l0-0.2l0-0.1l-0.7-1.6h-7.7l-0.6,1.4l0,0.1l0,0.1
	c0,0.1-0.1,0.1-0.1,0.2c0,0.1-0.1,0.2-0.1,0.3l0,0.2v0.2c0,0.3,0.1,0.5,0.3,0.7c0.2,0.2,0.6,0.4,1.2,0.5v0.9h-4.7v-0.9
	C34.8,113.5,35,113.4,35.2,113.2L35.2,113.2z"/>
<path class="st0" d="M64.9,101.9H64c-0.2-0.9-0.6-1.7-1.1-2.1c-0.5-0.5-1.1-0.8-1.6-1c-0.2-0.1-0.5-0.1-0.7-0.1c-0.2,0-0.5,0-0.7,0
	c-0.8,0-1.5,0.2-1.9,0.6c-0.4,0.4-0.7,0.9-0.7,1.4l0,0.2l0,0.2c0,0.5,0.2,0.9,0.5,1.2c0.3,0.3,0.7,0.6,1,0.8
	c0.3,0.1,0.5,0.2,0.7,0.3c0.2,0.1,0.4,0.2,0.6,0.2c0.1,0,0.2,0.1,0.2,0.1c0.1,0,0.1,0.1,0.2,0.1c1.5,0.5,2.8,1.2,3.9,1.9
	c1.1,0.7,1.7,2,1.7,3.7c0,1.5-0.5,2.7-1.6,3.8c-1.1,1.1-2.5,1.6-4.3,1.6c-0.5,0-1,0-1.4-0.1c-0.4-0.1-0.8-0.2-1.1-0.2l-0.2,0l-0.2,0
	c-0.3-0.1-0.5-0.1-0.8-0.2c-0.2-0.1-0.4-0.1-0.6-0.1c-0.2,0-0.3,0-0.4,0.1c-0.1,0.1-0.2,0.1-0.3,0.2l0,0.1l0,0.1v0l0,0l-0.7,0
	l-0.3-4.2H55c0.4,0.8,0.9,1.4,1.6,2c0.7,0.5,1.4,0.9,2.2,1.1c0.2,0,0.3,0.1,0.5,0.1c0.2,0,0.3,0,0.5,0c1,0,1.8-0.2,2.3-0.7
	c0.6-0.4,0.9-0.9,1.1-1.5c0.1-0.1,0.1-0.3,0.1-0.4c0-0.2,0-0.3,0-0.4c0-0.8-0.3-1.3-1-1.7c-0.6-0.4-1.4-0.7-2.1-1l0,0l0,0l-0.2-0.1
	l-0.2-0.1c-0.3-0.1-0.6-0.2-1-0.4c-0.4-0.1-0.8-0.3-1.1-0.5c-0.7-0.4-1.4-0.9-2-1.6c-0.6-0.7-0.9-1.6-0.9-2.8c0-1.4,0.5-2.6,1.5-3.5
	c1-0.9,2.1-1.4,3.5-1.4c0.5,0,0.9,0,1.2,0.1c0.4,0.1,0.7,0.2,0.9,0.3c0.3,0.1,0.5,0.2,0.7,0.3c0.2,0.1,0.3,0.2,0.5,0.3l0.2,0l0.2,0
	l0.1,0l0.1,0c0.1,0,0.2-0.1,0.2-0.1c0.1-0.1,0.1-0.1,0.2-0.2h0.8V101.9z"/>
<path class="st0" d="M79.1,101.9h-0.9c-0.2-0.9-0.6-1.7-1.1-2.1c-0.5-0.5-1.1-0.8-1.6-1c-0.2-0.1-0.5-0.1-0.7-0.1
	c-0.2,0-0.5,0-0.7,0c-0.8,0-1.5,0.2-1.9,0.6c-0.4,0.4-0.7,0.9-0.7,1.4l0,0.2l0,0.2c0,0.5,0.2,0.9,0.5,1.2c0.3,0.3,0.7,0.6,1,0.8
	c0.3,0.1,0.5,0.2,0.7,0.3c0.2,0.1,0.4,0.2,0.6,0.2c0.1,0,0.2,0.1,0.2,0.1c0.1,0,0.1,0.1,0.2,0.1c1.5,0.5,2.8,1.2,3.9,1.9
	c1.1,0.7,1.7,2,1.7,3.7c0,1.5-0.5,2.7-1.6,3.8c-1.1,1.1-2.5,1.6-4.3,1.6c-0.5,0-1,0-1.4-0.1c-0.4-0.1-0.8-0.2-1.1-0.2l-0.2,0l-0.2,0
	c-0.3-0.1-0.5-0.1-0.8-0.2c-0.2-0.1-0.4-0.1-0.6-0.1c-0.2,0-0.3,0-0.4,0.1c-0.1,0.1-0.2,0.1-0.3,0.2l0,0.1l0,0.1v0l0,0l-0.7,0
	l-0.3-4.2h0.9c0.4,0.8,0.9,1.4,1.6,2c0.7,0.5,1.4,0.9,2.2,1.1c0.2,0,0.3,0.1,0.5,0.1c0.2,0,0.3,0,0.5,0c1,0,1.8-0.2,2.3-0.7
	c0.6-0.4,0.9-0.9,1.1-1.5c0.1-0.1,0.1-0.3,0.1-0.4c0-0.2,0-0.3,0-0.4c0-0.8-0.3-1.3-1-1.7c-0.6-0.4-1.4-0.7-2.1-1l0,0l0,0l-0.2-0.1
	l-0.2-0.1c-0.3-0.1-0.6-0.2-1-0.4c-0.4-0.1-0.8-0.3-1.1-0.5c-0.7-0.4-1.4-0.9-2-1.6c-0.6-0.7-0.9-1.6-0.9-2.8c0-1.4,0.5-2.6,1.5-3.5
	c1-0.9,2.1-1.4,3.5-1.4c0.5,0,0.9,0,1.2,0.1c0.4,0.1,0.7,0.2,0.9,0.3c0.3,0.1,0.5,0.2,0.7,0.3c0.2,0.1,0.3,0.2,0.5,0.3l0.2,0l0.2,0
	l0.1,0l0.1,0c0.1,0,0.2-0.1,0.2-0.1c0.1-0.1,0.1-0.1,0.2-0.2h0.8V101.9z"/>
<path class="st0" d="M87.7,99.9c-0.9,0.9-1.3,2.9-1.3,6.1c0,2.8,0.4,4.8,1.1,5.8c0.7,1,1.9,1.6,3.4,1.6c1.5,0,2.6-0.5,3.4-1.6
	c0.7-1,1.1-3,1.1-5.8c0-3.2-0.4-5.3-1.3-6.1c-0.9-0.9-1.9-1.3-3.2-1.3C89.6,98.6,88.5,99,87.7,99.9L87.7,99.9z M97,100
	c1.5,1.8,2.3,3.8,2.3,5.9v0v0c0,2.6-0.9,4.7-2.6,6.3c-1.7,1.6-3.7,2.3-5.9,2.3c-2.2,0-4.2-0.8-5.9-2.3c-1.7-1.6-2.6-3.7-2.6-6.3v0v0
	c0-2.2,0.8-4.1,2.3-5.9c1.5-1.8,3.6-2.7,6.2-2.7C93.5,97.3,95.5,98.2,97,100L97,100z"/>
<path class="st0" d="M116.5,111.7c-1.3,1.1-2.5,1.9-3.6,2.3c-1.1,0.4-2.1,0.6-3.1,0.6c-2.3,0-4.3-0.8-5.9-2.4
	c-1.7-1.6-2.5-3.7-2.5-6.4c0-2.7,0.8-4.8,2.5-6.3c1.6-1.5,3.4-2.2,5.4-2.3h0.1h0.1c0.5,0,0.9,0,1.3,0.1c0.4,0,0.7,0.1,1,0.2
	c0.2,0,0.3,0.1,0.5,0.1c0.1,0,0.2,0.1,0.3,0.1c0.2,0.1,0.5,0.1,0.7,0.2c0.2,0,0.4,0.1,0.6,0.1c0.1,0,0.2,0,0.3-0.1
	c0.1,0,0.2-0.1,0.3-0.2l0,0l0,0l0,0l0,0h0.9v4h-0.9c-0.3-0.8-0.8-1.5-1.5-2c-0.7-0.5-1.5-0.8-2.3-0.9c-0.1,0-0.3,0-0.4,0
	c-0.1,0-0.3,0-0.4,0c-1.7,0-2.8,0.6-3.4,1.9c-0.6,1.3-0.9,2.6-0.9,4.1c0,0.3,0,0.5,0,0.8c0,0.3,0,0.5,0,0.8c0,0.3,0,0.5,0,0.8
	c0,0.3,0,0.5,0,0.8c0.1,1.3,0.5,2.5,1.2,3.6c0.7,1.1,2,1.6,3.9,1.6c0.6,0,1.2-0.1,1.8-0.3c0.6-0.2,1.2-0.4,1.8-0.8
	c0.2-0.1,0.5-0.3,0.7-0.5c0.3-0.2,0.5-0.4,0.8-0.6L116.5,111.7z"/>
<path class="st0" d="M124.6,97.5v0.9c-0.4,0.1-0.6,0.2-0.8,0.3c-0.2,0.2-0.3,0.3-0.3,0.5c0,0.1-0.1,0.3-0.1,0.4c0,0.1,0,0.2,0,0.3v0
	v11.9v0c0,0.1,0,0.2,0,0.3c0,0.1,0,0.3,0.1,0.4c0.1,0.2,0.2,0.3,0.3,0.5c0.2,0.2,0.4,0.3,0.8,0.3v0.9h-6v-0.9c0.4,0,0.7-0.2,0.8-0.4
	c0.2-0.2,0.3-0.4,0.3-0.6c0-0.1,0-0.2,0-0.3c0-0.1,0-0.2,0-0.3V100c0-0.1,0-0.2,0-0.3c0-0.1,0-0.2,0-0.3c0-0.2-0.2-0.4-0.3-0.6
	c-0.2-0.2-0.4-0.3-0.8-0.4v-0.9H124.6z"/>
<path class="st0" d="M130.3,108.4L130.3,108.4l6.3,0.1v-0.1l-3.1-6.6h-0.1L130.3,108.4z M126.1,113.2c0.2-0.1,0.5-0.4,0.8-0.8
	c0.1-0.1,0.2-0.2,0.2-0.4c0.1-0.1,0.1-0.3,0.2-0.4l4.9-10.3c0-0.1,0.1-0.2,0.1-0.4c0-0.1,0.1-0.3,0.1-0.4c0-0.1,0.1-0.2,0.1-0.4
	c0-0.1,0-0.2,0-0.4c0-0.1-0.1-0.2-0.3-0.3c-0.2-0.1-0.4-0.1-0.7-0.1h-0.1h-0.1v-0.9c0.7,0,1.2-0.2,1.6-0.3c0.4-0.2,0.8-0.4,1-0.6
	c0.1,0,0.2-0.1,0.2-0.2l0.2-0.2h0.9l6.3,13.2c0.5,1,0.9,1.7,1.2,2.2c0.3,0.4,0.6,0.7,0.9,0.9l0,0l0,0v0.9h-6.9v-0.9
	c0.4,0,0.7-0.1,0.9-0.3c0.2-0.2,0.4-0.5,0.4-0.8l0-0.1v-0.1l0-0.2l-0.1-0.2v0l0,0l0-0.2l0-0.1l-0.7-1.6h-7.7l-0.6,1.4l0,0.1l0,0.1
	c0,0.1-0.1,0.1-0.1,0.2c0,0.1-0.1,0.2-0.1,0.3l0,0.2v0.2c0,0.3,0.1,0.5,0.3,0.7c0.2,0.2,0.6,0.4,1.2,0.5v0.9h-4.7v-0.9
	C125.6,113.5,125.8,113.4,126.1,113.2L126.1,113.2z"/>
<path class="st0" d="M144.9,97.1c0.2,0.1,0.5,0.2,0.7,0.3c0.2,0.1,0.5,0.1,0.8,0.1h11c0.2,0,0.3,0,0.4,0c0.1,0,0.3,0,0.4,0
	c0.1,0,0.2-0.1,0.3-0.1c0.1,0,0.2-0.1,0.4-0.2h0.9v4.3h-0.9c-0.2-0.5-0.5-1-0.8-1.3c-0.3-0.3-0.6-0.6-0.9-0.8
	c-0.4-0.3-0.8-0.4-1.2-0.5c-0.4-0.1-0.7-0.1-0.9-0.1l-1.6,0v13.4c0,0.4,0.1,0.6,0.2,0.9c0.2,0.2,0.5,0.4,1,0.5v0.9h-6v-0.9l0.1,0
	l0.1,0c0.4-0.1,0.6-0.3,0.7-0.4c0.1-0.2,0.2-0.5,0.2-0.8V98.7l-1.3,0c-0.2,0-0.5,0-0.8,0.1c-0.3,0-0.6,0.1-0.9,0.2
	c-0.4,0.1-0.9,0.4-1.3,0.8c-0.4,0.4-0.8,0.9-1,1.7H144v-4.3H144.9z"/>
<path class="st0" d="M173,97.5c0.3,0,0.6,0,0.7-0.1c0.2,0,0.3-0.2,0.4-0.4h0.6v4.3h-0.9c-0.3-1.1-0.8-1.8-1.4-2.1
	c-0.6-0.3-1.4-0.5-2.5-0.5h-4v6.1h2.7c0.7,0,1.2-0.1,1.5-0.3c0.4-0.2,0.5-0.6,0.5-1.2h0.9v4.3h-0.9c0-0.4-0.1-0.7-0.3-0.9
	c-0.2-0.2-0.3-0.4-0.5-0.5c-0.2-0.1-0.3-0.1-0.5-0.1c-0.1,0-0.2,0-0.3,0H166v6.9h5.8c1,0,1.8-0.3,2.4-0.9c0.6-0.6,1-1.3,1.2-2.1h0.9
	v4.3h-15.1v-0.9c0.4,0,0.7-0.2,0.9-0.4c0.2-0.2,0.3-0.4,0.3-0.7c0-0.1,0-0.2,0-0.3c0-0.1,0-0.2,0-0.3V100v-0.2l0-0.2
	c0-0.3-0.1-0.5-0.3-0.7c-0.2-0.2-0.5-0.4-0.9-0.4v-0.9H173z"/>
<path class="st0" d="M184.8,113.1c0.4,0,0.8,0,1.2-0.1c0.5,0,1-0.2,1.5-0.3c0.9-0.3,1.8-1,2.5-1.9c0.8-1,1.1-2.5,1.1-4.7
	c0-2.3-0.4-3.9-1.3-4.9c-0.9-1-1.9-1.7-2.9-2c-0.4-0.1-0.8-0.2-1.3-0.2c-0.4,0-0.8-0.1-1.2-0.1h-1.6v14.3H184.8z M185.2,97.5
	c2.8,0,4.8,0.5,6.2,1.4c1.4,1,2.3,2,2.8,3.2c0.4,0.8,0.6,1.5,0.7,2.3c0.1,0.7,0.1,1.3,0.1,1.7c0,1.2-0.2,2.4-0.6,3.4
	c-0.4,1.1-1.2,2-2.2,2.9c-0.3,0.3-0.7,0.5-1,0.7c-0.4,0.2-0.7,0.4-1.1,0.5c-0.9,0.4-1.8,0.6-2.6,0.6c-0.8,0.1-1.4,0.1-1.8,0.1h-7.7
	v-0.9c0.6-0.2,0.9-0.4,1-0.6c0.1-0.2,0.1-0.5,0.1-0.9v0v0V100v0v0c0-0.3,0-0.6-0.1-0.9c-0.1-0.2-0.4-0.5-1-0.6v-0.9H185.2z"/>
<path class="st0" d="M220.8,111.7c-1.3,1.1-2.5,1.9-3.6,2.3c-1.1,0.4-2.1,0.6-3.1,0.6c-2.3,0-4.3-0.8-5.9-2.4
	c-1.7-1.6-2.5-3.7-2.5-6.4c0-2.7,0.8-4.8,2.5-6.3c1.6-1.5,3.4-2.2,5.4-2.3h0.1h0.1c0.5,0,0.9,0,1.3,0.1c0.4,0,0.7,0.1,1,0.2
	c0.2,0,0.3,0.1,0.5,0.1c0.1,0,0.2,0.1,0.3,0.1c0.2,0.1,0.5,0.1,0.7,0.2c0.2,0,0.4,0.1,0.6,0.1c0.1,0,0.2,0,0.3-0.1
	c0.1,0,0.2-0.1,0.3-0.2l0,0l0,0l0,0l0,0h0.9v4h-0.9c-0.3-0.8-0.8-1.5-1.5-2c-0.7-0.5-1.5-0.8-2.3-0.9c-0.1,0-0.3,0-0.4,0
	c-0.1,0-0.3,0-0.4,0c-1.7,0-2.8,0.6-3.4,1.9c-0.6,1.3-0.9,2.6-0.9,4.1c0,0.3,0,0.5,0,0.8c0,0.3,0,0.5,0,0.8c0,0.3,0,0.5,0,0.8
	c0,0.3,0,0.5,0,0.8c0.1,1.3,0.5,2.5,1.2,3.6c0.7,1.1,2,1.6,3.9,1.6c0.6,0,1.2-0.1,1.8-0.3c0.6-0.2,1.2-0.4,1.8-0.8
	c0.2-0.1,0.5-0.3,0.7-0.5c0.3-0.2,0.5-0.4,0.8-0.6L220.8,111.7z"/>
<path class="st0" d="M227.6,105.3h2.1c0.8,0,1.5-0.3,2-0.8c0.5-0.5,0.8-1.3,0.8-2.3c0-1.1-0.2-1.8-0.6-2.3c-0.4-0.5-0.9-0.8-1.4-0.9
	c-0.3-0.1-0.5-0.1-0.8-0.1c-0.2,0-0.5,0-0.7,0h-1.5V105.3z M229.9,97.5c0.3,0,0.8,0,1.3,0c0.6,0,1.1,0.1,1.7,0.3
	c0.9,0.2,1.7,0.6,2.5,1.3c0.8,0.6,1.1,1.6,1.1,3c0,0.9-0.2,1.7-0.7,2.3c-0.4,0.6-0.9,1.1-1.4,1.4c-0.2,0.1-0.4,0.2-0.6,0.3
	c-0.2,0.1-0.4,0.2-0.5,0.2l0,0.2l3.4,5.7c0.2,0.4,0.5,0.6,0.7,0.8c0.3,0.2,0.6,0.3,1,0.4v0.9h-4.6l-4-6.8l-0.1-0.2l-0.1-0.2
	c-0.2-0.3-0.4-0.5-0.7-0.6c-0.3-0.1-0.7-0.1-1.3-0.1v5.4v0c0,0.4,0,0.7,0.1,0.9c0.1,0.2,0.4,0.4,0.9,0.6l0.1,0l0.1,0v0.9h-6v-0.9
	l0.1,0l0,0h0l0.1,0l0.1,0l0.2,0l0.2-0.1c0.1-0.1,0.3-0.2,0.4-0.4c0.1-0.2,0.2-0.5,0.2-0.9V100c0-0.4-0.1-0.7-0.2-0.9
	c-0.1-0.2-0.3-0.3-0.4-0.4l-0.2-0.1l-0.2,0l-0.1,0l-0.1,0h0l0,0l-0.1,0v-0.9H229.9z"/>
<path class="st0" d="M251.6,97.5c0.3,0,0.6,0,0.7-0.1c0.2,0,0.3-0.2,0.4-0.4h0.6v4.3h-0.9c-0.3-1.1-0.8-1.8-1.4-2.1
	c-0.6-0.3-1.4-0.5-2.5-0.5h-4v6.1h2.7c0.7,0,1.2-0.1,1.5-0.3c0.4-0.2,0.5-0.6,0.5-1.2h0.9v4.3h-0.9c0-0.4-0.1-0.7-0.3-0.9
	c-0.2-0.2-0.3-0.4-0.5-0.5c-0.2-0.1-0.3-0.1-0.5-0.1c-0.1,0-0.2,0-0.3,0h-3.1v6.9h5.8c1,0,1.8-0.3,2.4-0.9c0.7-0.6,1-1.3,1.2-2.1
	h0.9v4.3h-15.1v-0.9c0.4,0,0.7-0.2,0.9-0.4c0.2-0.2,0.3-0.4,0.3-0.7c0-0.1,0-0.2,0-0.3c0-0.1,0-0.2,0-0.3V100v-0.2l0-0.2
	c0-0.3-0.1-0.5-0.3-0.7c-0.2-0.2-0.5-0.4-0.9-0.4v-0.9H251.6z"/>
<path class="st0" d="M263.4,113.1c0.4,0,0.8,0,1.2-0.1c0.5,0,1-0.2,1.5-0.3c0.9-0.3,1.8-1,2.5-1.9c0.8-1,1.1-2.5,1.1-4.7
	c0-2.3-0.4-3.9-1.3-4.9c-0.9-1-1.9-1.7-2.9-2c-0.4-0.1-0.8-0.2-1.3-0.2c-0.4,0-0.8-0.1-1.2-0.1h-1.6v14.3H263.4z M263.8,97.5
	c2.8,0,4.8,0.5,6.2,1.4s2.3,2,2.8,3.2c0.4,0.8,0.6,1.5,0.7,2.3c0.1,0.7,0.1,1.3,0.1,1.7c0,1.2-0.2,2.4-0.7,3.4
	c-0.4,1.1-1.2,2-2.2,2.9c-0.3,0.3-0.7,0.5-1,0.7c-0.4,0.2-0.7,0.4-1.1,0.5c-0.9,0.4-1.8,0.6-2.6,0.6c-0.8,0.1-1.4,0.1-1.8,0.1h-7.7
	v-0.9c0.6-0.2,0.9-0.4,1-0.6c0.1-0.2,0.1-0.5,0.1-0.9v0v0V100v0v0c0-0.3,0-0.6-0.1-0.9c-0.1-0.2-0.4-0.5-1-0.6v-0.9H263.8z"/>
<path class="st0" d="M281.7,97.5v0.9c-0.4,0.1-0.6,0.2-0.8,0.3c-0.2,0.2-0.3,0.3-0.3,0.5c0,0.1-0.1,0.3-0.1,0.4c0,0.1,0,0.2,0,0.3v0
	v11.9v0c0,0.1,0,0.2,0,0.3c0,0.1,0,0.3,0.1,0.4c0.1,0.2,0.2,0.3,0.3,0.5c0.2,0.2,0.4,0.3,0.8,0.3v0.9h-6v-0.9c0.4,0,0.7-0.2,0.8-0.4
	c0.2-0.2,0.3-0.4,0.3-0.6c0-0.1,0-0.2,0-0.3c0-0.1,0-0.2,0-0.3V100c0-0.1,0-0.2,0-0.3c0-0.1,0-0.2,0-0.3c0-0.2-0.2-0.4-0.3-0.6
	c-0.2-0.2-0.4-0.3-0.8-0.4v-0.9H281.7z"/>
<path class="st0" d="M283.9,97.1c0.2,0.1,0.5,0.2,0.7,0.3c0.2,0.1,0.5,0.1,0.8,0.1h11c0.2,0,0.3,0,0.4,0c0.1,0,0.3,0,0.4,0
	c0.1,0,0.2-0.1,0.3-0.1c0.1,0,0.2-0.1,0.4-0.2h0.9v4.3H298c-0.2-0.5-0.5-1-0.8-1.3c-0.3-0.3-0.6-0.6-0.9-0.8
	c-0.4-0.3-0.8-0.4-1.2-0.5c-0.4-0.1-0.7-0.1-0.9-0.1l-1.6,0v13.4c0,0.4,0.1,0.6,0.2,0.9c0.2,0.2,0.5,0.4,1,0.5v0.9h-6v-0.9l0.1,0
	l0.1,0c0.4-0.1,0.6-0.3,0.7-0.4c0.1-0.2,0.2-0.5,0.2-0.8V98.7l-1.3,0c-0.2,0-0.5,0-0.8,0.1c-0.3,0-0.6,0.1-0.9,0.2
	c-0.4,0.1-0.9,0.4-1.3,0.8c-0.4,0.4-0.8,0.9-1,1.7h-0.9v-4.3H283.9z"/>
<path class="st0" d="M314.4,97.5v0.9c-0.5,0.1-0.8,0.2-0.9,0.5c-0.1,0.3-0.2,0.5-0.2,0.8v0.1v0.1v6.9c0,0.2,0,0.4,0,0.6
	c0,0.2,0,0.4,0,0.6c0.1,1.2,0.4,2.2,1,3.2c0.6,1,1.8,1.4,3.8,1.4c1.7,0,2.9-0.3,3.6-1c0.7-0.7,1.1-1.4,1.2-2.3
	c0-0.3,0.1-0.5,0.1-0.8c0-0.3,0-0.5,0-0.7v-8v0c0-0.1,0-0.2,0-0.3c0-0.1,0-0.2,0-0.3c-0.1-0.2-0.2-0.3-0.4-0.5
	c-0.2-0.2-0.5-0.3-1-0.4v-0.9h4v0.9c-0.4,0.1-0.7,0.2-0.9,0.3c-0.2,0.2-0.3,0.3-0.4,0.5c0,0.1-0.1,0.3-0.1,0.4c0,0.1,0,0.2,0,0.3
	v7.9c0,1-0.1,1.9-0.4,2.8c-0.2,0.9-0.8,1.7-1.5,2.3c-0.2,0.1-0.3,0.3-0.5,0.4c-0.2,0.1-0.3,0.2-0.5,0.3c-0.9,0.5-1.7,0.8-2.5,0.9
	c-0.8,0.1-1.3,0.1-1.6,0.1c-1.2,0-2.2-0.1-3-0.4c-0.8-0.2-1.4-0.5-1.9-0.8c-0.3-0.2-0.5-0.3-0.7-0.5c-0.2-0.2-0.3-0.3-0.4-0.4
	c-0.1-0.1-0.2-0.2-0.3-0.3c-0.1-0.1-0.2-0.2-0.3-0.4c-0.2-0.4-0.5-0.9-0.7-1.5c-0.2-0.6-0.3-1.4-0.3-2.4v-8c0-0.1,0-0.1,0-0.2
	s0-0.2,0-0.2c0-0.3-0.1-0.5-0.2-0.7c-0.1-0.2-0.4-0.4-0.9-0.4v-0.9H314.4z"/>
<path class="st0" d="M332.1,97.5l8.9,10.7h0.3v-8.4c0-0.1,0-0.2,0-0.3c0-0.1,0-0.2-0.1-0.4c-0.1-0.2-0.2-0.3-0.4-0.5
	c-0.2-0.2-0.5-0.3-0.9-0.3v-0.9h4.1v0.9c-0.4,0.1-0.7,0.2-0.9,0.3c-0.2,0.2-0.3,0.3-0.4,0.5c0,0.1-0.1,0.3-0.1,0.4
	c0,0.1,0,0.2,0,0.3v14.5h-1.3l-10.8-13h-0.2V112c0,0.1,0,0.2,0,0.3c0,0.1,0,0.2,0.1,0.3c0.1,0.2,0.2,0.4,0.4,0.6
	c0.2,0.2,0.5,0.3,1,0.4v0.9h-4.1v-0.9c0.4-0.1,0.7-0.2,0.9-0.4c0.2-0.2,0.3-0.4,0.4-0.6c0-0.1,0.1-0.2,0.1-0.3c0-0.1,0-0.2,0-0.3
	V99.9c0-0.1,0-0.2,0-0.3c0-0.1,0-0.2-0.1-0.3c0-0.2-0.2-0.4-0.4-0.6c-0.2-0.2-0.5-0.3-0.9-0.2v-0.9H332.1z"/>
<path class="st0" d="M351.9,97.5v0.9c-0.4,0.1-0.6,0.2-0.8,0.3c-0.2,0.2-0.3,0.3-0.3,0.5c0,0.1-0.1,0.3-0.1,0.4c0,0.1,0,0.2,0,0.3v0
	v11.9v0c0,0.1,0,0.2,0,0.3c0,0.1,0,0.3,0.1,0.4c0.1,0.2,0.2,0.3,0.3,0.5c0.2,0.2,0.4,0.3,0.8,0.3v0.9h-6v-0.9c0.4,0,0.7-0.2,0.8-0.4
	c0.2-0.2,0.3-0.4,0.3-0.6c0-0.1,0-0.2,0-0.3c0-0.1,0-0.2,0-0.3V100c0-0.1,0-0.2,0-0.3c0-0.1,0-0.2,0-0.3c0-0.2-0.2-0.4-0.3-0.6
	c-0.2-0.2-0.4-0.3-0.8-0.4v-0.9H351.9z"/>
<path class="st0" d="M359.2,99.9c-0.9,0.9-1.3,2.9-1.3,6.1c0,2.8,0.4,4.8,1.1,5.8c0.7,1,1.9,1.6,3.4,1.6c1.5,0,2.6-0.5,3.4-1.6
	c0.7-1,1.1-3,1.1-5.8c0-3.2-0.4-5.3-1.3-6.1c-0.9-0.9-1.9-1.3-3.2-1.3C361.1,98.6,360.1,99,359.2,99.9L359.2,99.9z M368.6,100
	c1.5,1.8,2.3,3.8,2.3,5.9v0v0c0,2.6-0.9,4.7-2.6,6.3c-1.7,1.6-3.7,2.3-5.9,2.3c-2.2,0-4.2-0.8-5.9-2.3c-1.7-1.6-2.6-3.7-2.6-6.3v0v0
	c0-2.2,0.8-4.1,2.3-5.9c1.5-1.8,3.6-2.7,6.2-2.7C365,97.3,367.1,98.2,368.6,100L368.6,100z"/>
<path class="st0" d="M377.5,97.5l8.9,10.7h0.3v-8.4c0-0.1,0-0.2,0-0.3c0-0.1,0-0.2-0.1-0.4c-0.1-0.2-0.2-0.3-0.4-0.5
	c-0.2-0.2-0.5-0.3-0.9-0.3v-0.9h4.1v0.9c-0.4,0.1-0.7,0.2-0.9,0.3c-0.2,0.2-0.3,0.3-0.4,0.5c0,0.1-0.1,0.3-0.1,0.4
	c0,0.1,0,0.2,0,0.3v14.5h-1.3l-10.8-13h-0.2V112c0,0.1,0,0.2,0,0.3c0,0.1,0,0.2,0.1,0.3c0.1,0.2,0.2,0.4,0.4,0.6
	c0.2,0.2,0.5,0.3,1,0.4v0.9h-4.1v-0.9c0.4-0.1,0.7-0.2,0.9-0.4c0.2-0.2,0.3-0.4,0.4-0.6c0-0.1,0-0.2,0.1-0.3c0-0.1,0-0.2,0-0.3V99.9
	c0-0.1,0-0.2,0-0.3c0-0.1,0-0.2-0.1-0.3c0-0.2-0.2-0.4-0.4-0.6c-0.2-0.2-0.5-0.3-0.9-0.2v-0.9H377.5z"/>
</svg>
